<svg xmlns="http://www.w3.org/2000/svg" viewBox="0 0 172.98 96.48"><defs><style>.cls-1{fill:#1d61a2;}.cls-2{fill:#36a9e1;}.cls-3{fill:#93d5f6;}.cls-4{fill:#c6c3c2;}.cls-5,.cls-8{fill:#8fc034;}.cls-5{stroke:#8fc034;stroke-width:1.6px;}.cls-6{fill:#706f6f;}.cls-7{fill:#9c999a;}</style></defs><title>banner-logo</title><g id="Layer_2" data-name="Layer 2"><g id="Layer_1-2" data-name="Layer 1"><path class="cls-1" d="M78.07,1.88a9.91,9.91,0,0,1,1.17-.13q.6,0,1.17,0t1.17,0a11.07,11.07,0,0,1,1.2.13v9.18q.23-.3.62-.72a5.37,5.37,0,0,1,1-.8,5.61,5.61,0,0,1,1.37-.65,5.8,5.8,0,0,1,1.84-.27,5.65,5.65,0,0,1,4.36,1.6q1.48,1.6,1.49,5v11a11.06,11.06,0,0,1-1.2.13q-.6,0-1.17,0t-1.17,0a11.07,11.07,0,0,1-1.2-.13V16.54a5.54,5.54,0,0,0-.57-2.77,2.06,2.06,0,0,0-1.94-1A4.36,4.36,0,0,0,85,13a2.45,2.45,0,0,0-1.08.65,3.66,3.66,0,0,0-.8,1.35,6.73,6.73,0,0,0-.32,2.27v9.08a11.06,11.06,0,0,1-1.2.13q-.6,0-1.17,0t-1.15,0a11.08,11.08,0,0,1-1.19-.13Z"/><path class="cls-1" d="M99,18.77a6.61,6.61,0,0,1-2.92-1.59A4.28,4.28,0,0,1,95.06,14a4.78,4.78,0,0,1,1.82-4,7.8,7.8,0,0,1,5-1.44,14.2,14.2,0,0,1,2.57.23,16.46,16.46,0,0,1,2.57.7,9.13,9.13,0,0,1-.33,1.8A8.68,8.68,0,0,1,106,13a13.26,13.26,0,0,0-1.77-.58,8.11,8.11,0,0,0-2-.25,3.69,3.69,0,0,0-1.77.35,1.18,1.18,0,0,0-.63,1.12,1.15,1.15,0,0,0,.45,1,5.26,5.26,0,0,0,1.28.57l1.9.57a9.39,9.39,0,0,1,1.69.65,4.66,4.66,0,0,1,1.29,1,4,4,0,0,1,.83,1.4,6.05,6.05,0,0,1,.3,2,5.21,5.21,0,0,1-.52,2.3,5.32,5.32,0,0,1-1.5,1.85,7.44,7.44,0,0,1-2.39,1.24,10.35,10.35,0,0,1-3.17.45q-.8,0-1.47-.05a11.59,11.59,0,0,1-1.29-.17q-.62-.12-1.22-.28t-1.3-.43A9.6,9.6,0,0,1,95,23.93a11.47,11.47,0,0,1,.65-1.79,13.83,13.83,0,0,0,2.09.65A9.5,9.5,0,0,0,99.8,23a6.82,6.82,0,0,0,1-.08,3.71,3.71,0,0,0,1-.3,2.41,2.41,0,0,0,.78-.57,1.56,1.56,0,0,0-.17-2.07,4.68,4.68,0,0,0-1.35-.62Z"/><path class="cls-1" d="M109,9q.5-.1,1-.15a8.93,8.93,0,0,1,1-.05,7.23,7.23,0,0,1,1,.07q.48.07,1,.17a1.93,1.93,0,0,1,.18.48q.08.32.15.67t.12.7l.08.58a8.6,8.6,0,0,1,1.8-1.85,4.27,4.27,0,0,1,2.67-.82l.77,0a2.91,2.91,0,0,1,.63.1,6.55,6.55,0,0,1,.1.77q0,.43,0,.9t-.05,1.24a8.93,8.93,0,0,1-.18,1.27,4.61,4.61,0,0,0-.82-.07h-.55a7.79,7.79,0,0,0-1.27.12,2.92,2.92,0,0,0-1.34.62,3.65,3.65,0,0,0-1.05,1.5,7.51,7.51,0,0,0-.42,2.8v8.21a11.06,11.06,0,0,1-1.2.13q-.6,0-1.17,0t-1.15,0q-.58,0-1.22-.13Z"/><path class="cls-1" d="M83.63,37.62a3.35,3.35,0,0,1-.29,1.46,2.79,2.79,0,0,1-.81,1,3.44,3.44,0,0,1-1.22.59,5.68,5.68,0,0,1-1.52.19,6.89,6.89,0,0,1-1.09-.09,4.68,4.68,0,0,1-1.06-.29,3,3,0,0,1,.13-.57,3.93,3.93,0,0,1,.24-.55,6.6,6.6,0,0,0,.82.23,4.6,4.6,0,0,0,1,.09,2.9,2.9,0,0,0,1.8-.49,1.79,1.79,0,0,0,.63-1.52,2.19,2.19,0,0,0-.11-.71,1.45,1.45,0,0,0-.37-.58,1.75,1.75,0,0,0-.66-.39,3.08,3.08,0,0,0-1-.14,5,5,0,0,0-.82.07,4.37,4.37,0,0,0-.71.17L78.44,36q0-1.18.09-2.35t.1-2.36h4.54a2.19,2.19,0,0,1,0,.29q0,.14,0,.29t0,.31a2.21,2.21,0,0,1,0,.3H79.82l-.08,2.38a3.35,3.35,0,0,1,.51-.07h.41a3.75,3.75,0,0,1,1.22.19,2.46,2.46,0,0,1,1.54,1.45A3.2,3.2,0,0,1,83.63,37.62Z"/><path class="cls-1" d="M85.85,34.94h-1l-.05-.19,2.3-2.57h.11v1.7H88.9a2.23,2.23,0,0,1,.05.51c0,.1,0,.19,0,.28s0,.18,0,.27H87.16v3.13a6.77,6.77,0,0,0,0,.9,1.32,1.32,0,0,0,.16.51.55.55,0,0,0,.31.24,1.68,1.68,0,0,0,.49.06,2.61,2.61,0,0,0,.43,0l.36-.07a2.11,2.11,0,0,1,.11.55q0,.28,0,.49a4.34,4.34,0,0,1-.56.1,5.58,5.58,0,0,1-.63,0,2.22,2.22,0,0,1-1.5-.47,2,2,0,0,1-.54-1.55Z"/><path class="cls-1" d="M90.1,30.94l.33,0h.66l.33,0v4a3.9,3.9,0,0,1,.3-.4,2.25,2.25,0,0,1,.44-.39,2.36,2.36,0,0,1,1.36-.41,2.15,2.15,0,0,1,1.74.67,3,3,0,0,1,.57,2v4.34l-.33,0h-.65l-.33,0v-4a2.46,2.46,0,0,0-.31-1.4,1.09,1.09,0,0,0-1-.45,1.94,1.94,0,0,0-.7.13,1.54,1.54,0,0,0-.59.4,1.94,1.94,0,0,0-.4.71,3.4,3.4,0,0,0-.15,1.07v3.51l-.33,0h-.65l-.33,0Z"/><path class="cls-1" d="M106.14,35.77l.33,0h.7l.32,0v4.69a4.33,4.33,0,0,1-.61.21,5.64,5.64,0,0,1-.69.13l-.72.07-.68,0a5.26,5.26,0,0,1-1.92-.33,3.84,3.84,0,0,1-1.44-1,4.31,4.31,0,0,1-.9-1.54,6.89,6.89,0,0,1,0-4.14,4.51,4.51,0,0,1,.92-1.58,4.06,4.06,0,0,1,1.42-1,4.57,4.57,0,0,1,1.82-.35,7.61,7.61,0,0,1,1.32.1,5.62,5.62,0,0,1,1,.27,2.48,2.48,0,0,1-.11.57q-.09.26-.21.55-.37-.12-.81-.21a5.31,5.31,0,0,0-1.09-.09,3.19,3.19,0,0,0-1.29.25,2.66,2.66,0,0,0-1,.74,3.51,3.51,0,0,0-.63,1.2,5.4,5.4,0,0,0-.23,1.64,5.1,5.1,0,0,0,.23,1.64,3.16,3.16,0,0,0,.66,1.15,2.63,2.63,0,0,0,1,.68,3.61,3.61,0,0,0,1.29.22,5.23,5.23,0,0,0,.75,0,4,4,0,0,0,.55-.11Z"/><path class="cls-1" d="M109.28,30.94l.33,0h.65l.33,0v7.72a2.05,2.05,0,0,0,.07.59.78.78,0,0,0,.18.33.53.53,0,0,0,.27.15,1.54,1.54,0,0,0,.33,0h.27l.26,0a4.06,4.06,0,0,1,.12,1,1.76,1.76,0,0,1-.45.09l-.49,0a2.67,2.67,0,0,1-.72-.09,1.55,1.55,0,0,1-.59-.31,1.45,1.45,0,0,1-.4-.57,2.38,2.38,0,0,1-.15-.9Z"/><path class="cls-1" d="M115.8,40.9a3.36,3.36,0,0,1-1.4-.27,2.79,2.79,0,0,1-1-.76,3.14,3.14,0,0,1-.59-1.14,5.28,5.28,0,0,1,0-2.83,3.14,3.14,0,0,1,.59-1.14,2.86,2.86,0,0,1,1-.76,3.65,3.65,0,0,1,2.81,0,2.86,2.86,0,0,1,1,.76,3.14,3.14,0,0,1,.59,1.14,5.28,5.28,0,0,1,0,2.83,3.14,3.14,0,0,1-.59,1.14,2.79,2.79,0,0,1-1,.76A3.36,3.36,0,0,1,115.8,40.9Zm0-1.06a1.52,1.52,0,0,0,1.36-.67,3.35,3.35,0,0,0,.44-1.86,3.31,3.31,0,0,0-.44-1.85,1.52,1.52,0,0,0-1.36-.66,1.51,1.51,0,0,0-1.36.66,3.36,3.36,0,0,0-.43,1.85,3.39,3.39,0,0,0,.43,1.86A1.5,1.5,0,0,0,115.8,39.84Z"/><path class="cls-1" d="M120.45,30.94l.33,0h.66l.33,0v3.77a2,2,0,0,1,.75-.7,2.42,2.42,0,0,1,1.23-.29,3.14,3.14,0,0,1,1.14.2,2.27,2.27,0,0,1,.9.62,2.93,2.93,0,0,1,.58,1.07,5.05,5.05,0,0,1,.21,1.53,3.73,3.73,0,0,1-1,2.76,3.88,3.88,0,0,1-2.87,1,6.74,6.74,0,0,1-1.21-.11,7.3,7.3,0,0,1-1-.26Zm1.32,8.69a2.63,2.63,0,0,0,.51.11,4.7,4.7,0,0,0,.57,0,2.65,2.65,0,0,0,.92-.15,1.93,1.93,0,0,0,.73-.47,2.23,2.23,0,0,0,.49-.8,3.33,3.33,0,0,0,.18-1.16,3.23,3.23,0,0,0-.39-1.72,1.4,1.4,0,0,0-1.28-.61,1.91,1.91,0,0,0-.61.1,1.63,1.63,0,0,0-.55.32,1.56,1.56,0,0,0-.41.59,2.3,2.3,0,0,0-.15.89Z"/><path class="cls-1" d="M131.7,36.22a1.3,1.3,0,0,0-.4-1.1,1.88,1.88,0,0,0-1.16-.31,5,5,0,0,0-.88.07,6.69,6.69,0,0,0-.8.19,2.08,2.08,0,0,1-.25-1.06,6.17,6.17,0,0,1,1-.23,7.31,7.31,0,0,1,1.06-.08,3,3,0,0,1,2,.61,2.46,2.46,0,0,1,.69,1.94v4.29q-.47.11-1.14.22a8.15,8.15,0,0,1-1.36.11,5.34,5.34,0,0,1-1.18-.12,2.41,2.41,0,0,1-.9-.39,1.79,1.79,0,0,1-.57-.68,2.29,2.29,0,0,1-.2-1,2,2,0,0,1,.87-1.73,2.83,2.83,0,0,1,.92-.43,4.2,4.2,0,0,1,1.1-.14l.7,0,.46,0Zm0,1.3-.51-.05-.52,0a2.17,2.17,0,0,0-1.26.31,1.07,1.07,0,0,0-.43.94,1.15,1.15,0,0,0,.15.63,1,1,0,0,0,.37.35,1.27,1.27,0,0,0,.49.15l.51,0a6.2,6.2,0,0,0,.63,0,3.8,3.8,0,0,0,.58-.1Z"/><path class="cls-1" d="M134.7,30.94l.33,0h.65l.33,0v7.72a2.05,2.05,0,0,0,.07.59.78.78,0,0,0,.18.33.53.53,0,0,0,.27.15,1.54,1.54,0,0,0,.33,0h.27l.26,0a4.06,4.06,0,0,1,.12,1,1.76,1.76,0,0,1-.45.09l-.49,0a2.67,2.67,0,0,1-.72-.09,1.55,1.55,0,0,1-.59-.31,1.45,1.45,0,0,1-.4-.57,2.38,2.38,0,0,1-.15-.9Z"/><path class="cls-1" d="M77.71,52.13a9.36,9.36,0,0,0,.92.28,4.94,4.94,0,0,0,1.18.12,2.53,2.53,0,0,0,1.64-.45A1.49,1.49,0,0,0,82,50.87a1.64,1.64,0,0,0-.11-.64,1.24,1.24,0,0,0-.34-.46,2.54,2.54,0,0,0-.57-.35l-.8-.35-.76-.31a5.23,5.23,0,0,1-.71-.35,2.19,2.19,0,0,1-.55-.47,2.14,2.14,0,0,1-.37-.65,2.57,2.57,0,0,1-.13-.88,2.34,2.34,0,0,1,.83-1.9,3.54,3.54,0,0,1,2.33-.69,6.64,6.64,0,0,1,1.22.11,6.43,6.43,0,0,1,1,.27,4.17,4.17,0,0,1-.29,1.11,6.62,6.62,0,0,0-.84-.24A4.91,4.91,0,0,0,80.83,45a2.13,2.13,0,0,0-1.3.34,1.2,1.2,0,0,0-.45,1,1.08,1.08,0,0,0,.11.5,1.33,1.33,0,0,0,.3.39,2.18,2.18,0,0,0,.44.3,4.79,4.79,0,0,0,.53.24l.75.29a8,8,0,0,1,.95.45,3,3,0,0,1,.71.55,2.13,2.13,0,0,1,.45.74,3,3,0,0,1,.15,1A2.68,2.68,0,0,1,82.52,53a4,4,0,0,1-2.66.8l-.75,0a6.06,6.06,0,0,1-.62-.08,5.33,5.33,0,0,1-.55-.13l-.55-.17a3,3,0,0,1,.12-.6Q77.61,52.42,77.71,52.13Z"/><path class="cls-1" d="M87.2,53.6h-.72l-.24,0L84,46.73l.36,0h.74l.36,0,1.9,6.37,2-6.37a4.68,4.68,0,0,1,.65,0h.33l.37,0L88,55a6.28,6.28,0,0,1-.39.92,2.19,2.19,0,0,1-.45.6,1.48,1.48,0,0,1-.57.32,2.58,2.58,0,0,1-.73.09,4,4,0,0,1-.61,0,4.14,4.14,0,0,1-.53-.11,2.55,2.55,0,0,1,.05-.55,2.5,2.5,0,0,1,.16-.48l.33.09a2,2,0,0,0,.45,0,1.55,1.55,0,0,0,.33,0,.73.73,0,0,0,.29-.13,1,1,0,0,0,.25-.29,2.59,2.59,0,0,0,.22-.51Z"/><path class="cls-1" d="M91.67,46.73l.29,0h.56l.27,0q0,.2.08.53a4.67,4.67,0,0,1,0,.55,2.48,2.48,0,0,1,.3-.46,2.14,2.14,0,0,1,.43-.39,2.19,2.19,0,0,1,.57-.28,2.23,2.23,0,0,1,.71-.11,1.79,1.79,0,0,1,1.9,1.24,3.19,3.19,0,0,1,.33-.45,2.44,2.44,0,0,1,.43-.4,2.4,2.4,0,0,1,3,.28,3.09,3.09,0,0,1,.54,2v4.37l-.33,0h-.66l-.33,0v-4a2.71,2.71,0,0,0-.28-1.38,1,1,0,0,0-.92-.46,1.38,1.38,0,0,0-1.1.49A2.19,2.19,0,0,0,97,49.71v3.88l-.33,0h-.65l-.33,0V49.51a2.68,2.68,0,0,0-.27-1.34.92.92,0,0,0-.86-.45,1.39,1.39,0,0,0-.63.15,1.47,1.47,0,0,0-.51.44,2.25,2.25,0,0,0-.35.74,3.81,3.81,0,0,0-.13,1v3.5l-.33,0H92l-.33,0Z"/><path class="cls-1" d="M102.8,46.73l.27,0h.57l.28,0a.85.85,0,0,1,0,.17l0,.3,0,.31c0,.1,0,.16,0,.19a2.74,2.74,0,0,1,.32-.41,2.15,2.15,0,0,1,.45-.36,2.35,2.35,0,0,1,.59-.25,2.66,2.66,0,0,1,.73-.09,3,3,0,0,1,1.12.2,2.23,2.23,0,0,1,.88.62,3,3,0,0,1,.57,1.07,5.05,5.05,0,0,1,.21,1.53,3.82,3.82,0,0,1-1,2.76,3.57,3.57,0,0,1-2.71,1,4.63,4.63,0,0,1-.6,0,3.49,3.49,0,0,1-.53-.11v3.14l-.34,0h-.65l-.33,0Zm1.32,5.73a2.61,2.61,0,0,0,.52.13,4.85,4.85,0,0,0,.7,0,2.44,2.44,0,0,0,.88-.15,1.75,1.75,0,0,0,.69-.47,2.32,2.32,0,0,0,.45-.81,3.57,3.57,0,0,0,.17-1.16,3.17,3.17,0,0,0-.39-1.7,1.41,1.41,0,0,0-1.29-.63,1.74,1.74,0,0,0-.64.12,1.58,1.58,0,0,0-.55.36,1.78,1.78,0,0,0-.39.61,2.35,2.35,0,0,0-.15.88Z"/><path class="cls-1" d="M113.21,53.75a3.36,3.36,0,0,1-1.4-.27,2.79,2.79,0,0,1-1-.76,3.14,3.14,0,0,1-.59-1.14,5.28,5.28,0,0,1,0-2.83,3.14,3.14,0,0,1,.59-1.14,2.85,2.85,0,0,1,1-.76,3.65,3.65,0,0,1,2.81,0,2.85,2.85,0,0,1,1,.76,3.14,3.14,0,0,1,.59,1.14,5.28,5.28,0,0,1,0,2.83,3.14,3.14,0,0,1-.59,1.14,2.79,2.79,0,0,1-1,.76A3.36,3.36,0,0,1,113.21,53.75Zm0-1.06a1.52,1.52,0,0,0,1.36-.67,3.35,3.35,0,0,0,.44-1.86,3.31,3.31,0,0,0-.44-1.85,1.52,1.52,0,0,0-1.36-.66,1.51,1.51,0,0,0-1.36.66,3.36,3.36,0,0,0-.43,1.85,3.39,3.39,0,0,0,.43,1.86A1.5,1.5,0,0,0,113.21,52.69Z"/><path class="cls-1" d="M117.75,52.34a4.57,4.57,0,0,0,1.66.32,2.53,2.53,0,0,0,.59-.07,1.56,1.56,0,0,0,.49-.2,1.12,1.12,0,0,0,.33-.33.78.78,0,0,0,.13-.43.88.88,0,0,0-.1-.44.94.94,0,0,0-.27-.29,1.77,1.77,0,0,0-.39-.21l-.47-.17-.47-.17a3.37,3.37,0,0,1-1.24-.72,1.49,1.49,0,0,1-.39-1.08,1.77,1.77,0,0,1,.65-1.44,2.93,2.93,0,0,1,1.9-.53,5.19,5.19,0,0,1,1,.1,6.33,6.33,0,0,1,.88.23,3.25,3.25,0,0,1-.1.53,3,3,0,0,1-.18.49,6.94,6.94,0,0,0-.7-.21,3.65,3.65,0,0,0-.88-.1,2.09,2.09,0,0,0-.88.17.62.62,0,0,0-.38.61.76.76,0,0,0,.09.39.87.87,0,0,0,.25.27,1.69,1.69,0,0,0,.37.19l.45.16.59.2a4.35,4.35,0,0,1,.61.25,1.79,1.79,0,0,1,.49.37,1.71,1.71,0,0,1,.33.53,2.21,2.21,0,0,1-.07,1.66,2,2,0,0,1-.57.7,2.73,2.73,0,0,1-.89.45,3.9,3.9,0,0,1-1.15.16,6.42,6.42,0,0,1-1.12-.09,5.73,5.73,0,0,1-.9-.23,2.66,2.66,0,0,1,.11-.54Q117.64,52.61,117.75,52.34Z"/><path class="cls-1" d="M124.09,47.77h-.87a1.67,1.67,0,0,1,0-.25c0-.09,0-.18,0-.27s0-.18,0-.27a1.67,1.67,0,0,1,0-.25h2.17v6.86l-.33,0h-.64l-.33,0Zm-.29-2.55a2.7,2.7,0,0,1,0-.35c0-.12,0-.24,0-.33s0-.21,0-.33a2.35,2.35,0,0,1,0-.33l.37,0h.69l.36,0a2.35,2.35,0,0,1,0,.33q0,.19,0,.33t0,.33a2.7,2.7,0,0,1,0,.35l-.35,0h-.7Z"/><path class="cls-1" d="M127.19,46.73l.33,0h.65l.33,0v3.76a4,4,0,0,0,.12,1.06,1.5,1.5,0,0,0,.36.66,1.29,1.29,0,0,0,.59.33,3.09,3.09,0,0,0,.8.09,4,4,0,0,0,1.16-.15V46.73l.33,0h.65l.33,0v6.64q-.47.13-1.12.25a7.36,7.36,0,0,1-1.34.12,6.45,6.45,0,0,1-1.24-.11,2.35,2.35,0,0,1-1-.46,2.31,2.31,0,0,1-.7-1,4.49,4.49,0,0,1-.25-1.66Z"/><path class="cls-1" d="M134.67,46.73l.29,0h.56l.27,0q0,.2.08.53a4.68,4.68,0,0,1,0,.55,2.48,2.48,0,0,1,.3-.46,2.14,2.14,0,0,1,.43-.39,2.18,2.18,0,0,1,.57-.28,2.23,2.23,0,0,1,.71-.11,1.79,1.79,0,0,1,1.9,1.24,3.19,3.19,0,0,1,.33-.45,2.44,2.44,0,0,1,.43-.4,2.4,2.4,0,0,1,3,.28,3.09,3.09,0,0,1,.54,2v4.37l-.33,0h-.66l-.33,0v-4a2.71,2.71,0,0,0-.28-1.38,1,1,0,0,0-.92-.46,1.38,1.38,0,0,0-1.1.49,2.19,2.19,0,0,0-.42,1.46v3.88l-.33,0h-.65l-.33,0V49.51a2.68,2.68,0,0,0-.27-1.34.92.92,0,0,0-.86-.45,1.39,1.39,0,0,0-.63.15,1.47,1.47,0,0,0-.51.44,2.25,2.25,0,0,0-.35.74,3.81,3.81,0,0,0-.13,1v3.5l-.33,0H135l-.33,0Z"/><path class="cls-1" d="M151.49,53.75a3.36,3.36,0,0,1-1.4-.27,2.79,2.79,0,0,1-1-.76,3.14,3.14,0,0,1-.59-1.14,5.28,5.28,0,0,1,0-2.83,3.14,3.14,0,0,1,.59-1.14,2.85,2.85,0,0,1,1-.76,3.65,3.65,0,0,1,2.81,0,2.85,2.85,0,0,1,1,.76,3.14,3.14,0,0,1,.59,1.14,5.28,5.28,0,0,1,0,2.83,3.14,3.14,0,0,1-.59,1.14,2.79,2.79,0,0,1-1,.76A3.36,3.36,0,0,1,151.49,53.75Zm0-1.06a1.52,1.52,0,0,0,1.36-.67,3.35,3.35,0,0,0,.44-1.86,3.31,3.31,0,0,0-.44-1.85,1.52,1.52,0,0,0-1.36-.66,1.51,1.51,0,0,0-1.36.66,3.36,3.36,0,0,0-.43,1.85,3.39,3.39,0,0,0,.43,1.86A1.5,1.5,0,0,0,151.49,52.69Z"/><path class="cls-1" d="M156.16,46.73l.29,0H157l.27,0q0,.2.08.54a5,5,0,0,1,0,.57,2.73,2.73,0,0,1,.34-.45,2.62,2.62,0,0,1,.47-.41,2.44,2.44,0,0,1,1.38-.41,2.13,2.13,0,0,1,1.74.67,3.06,3.06,0,0,1,.56,2v4.34l-.33,0h-.66l-.33,0v-4a2.6,2.6,0,0,0-.29-1.4,1,1,0,0,0-.94-.45,1.89,1.89,0,0,0-.71.13,1.58,1.58,0,0,0-.59.41,2.07,2.07,0,0,0-.41.73,3.32,3.32,0,0,0-.15,1.08v3.47l-.33,0h-.66l-.33,0Z"/><path class="cls-2" d="M78,58.2l.33,0H79l.33,0v4h4.09v-4l.32,0h.7l.34,0v9.61l-.32,0h-.71l-.33,0V63.36H79.32v4.45l-.33,0h-.71l-.33,0Z"/><path class="cls-2" d="M87.74,64.71a2.24,2.24,0,0,0,.58,1.64,2.31,2.31,0,0,0,1.64.52,4.91,4.91,0,0,0,1.8-.33,2,2,0,0,1,.17.49,3.19,3.19,0,0,1,.08.57,4.48,4.48,0,0,1-1,.28,6.74,6.74,0,0,1-1.17.09,4.41,4.41,0,0,1-1.6-.26,2.82,2.82,0,0,1-1.74-1.86,4.8,4.8,0,0,1-.2-1.42A5,5,0,0,1,86.53,63a3.2,3.2,0,0,1,.59-1.15,2.87,2.87,0,0,1,1-.78,3.33,3.33,0,0,1,1.44-.29,3,3,0,0,1,1.24.24,2.53,2.53,0,0,1,.9.66,2.88,2.88,0,0,1,.55,1A4.11,4.11,0,0,1,92.44,64c0,.13,0,.26,0,.39s0,.26,0,.35Zm3.39-1A2.52,2.52,0,0,0,91,63a1.81,1.81,0,0,0-.29-.59,1.43,1.43,0,0,0-.49-.41,1.55,1.55,0,0,0-.71-.15,1.57,1.57,0,0,0-1.25.49,2.42,2.42,0,0,0-.53,1.38Z"/><path class="cls-2" d="M97.53,63.29a1.3,1.3,0,0,0-.4-1.1A1.88,1.88,0,0,0,96,61.89a5,5,0,0,0-.88.07,6.69,6.69,0,0,0-.8.19A2.08,2.08,0,0,1,94,61.1a6.16,6.16,0,0,1,1-.23,7.28,7.28,0,0,1,1.06-.08,3,3,0,0,1,2,.61,2.46,2.46,0,0,1,.69,1.94v4.29q-.47.11-1.14.22a8.14,8.14,0,0,1-1.36.11,5.35,5.35,0,0,1-1.18-.12,2.41,2.41,0,0,1-.9-.39,1.8,1.8,0,0,1-.57-.68,2.28,2.28,0,0,1-.2-1A2,2,0,0,1,94.35,64a2.83,2.83,0,0,1,.92-.43,4.21,4.21,0,0,1,1.1-.14l.7,0,.46,0Zm0,1.3L97,64.53l-.52,0a2.17,2.17,0,0,0-1.26.31,1.07,1.07,0,0,0-.43.94,1.15,1.15,0,0,0,.15.63,1,1,0,0,0,.37.35,1.27,1.27,0,0,0,.49.15l.51,0a6.3,6.3,0,0,0,.63,0,3.82,3.82,0,0,0,.58-.1Z"/><path class="cls-2" d="M100.53,58l.33,0h.65l.33,0v7.72a2,2,0,0,0,.07.59.78.78,0,0,0,.18.33.53.53,0,0,0,.27.15,1.53,1.53,0,0,0,.33,0H103l.26,0a4.07,4.07,0,0,1,.12,1,1.76,1.76,0,0,1-.45.09l-.49,0a2.67,2.67,0,0,1-.72-.09,1.54,1.54,0,0,1-.59-.31,1.44,1.44,0,0,1-.4-.57,2.38,2.38,0,0,1-.15-.9Z"/><path class="cls-2" d="M104.52,62h-1l-.05-.19,2.3-2.57h.11V61h1.74a2.23,2.23,0,0,1,.05.51c0,.1,0,.19,0,.28s0,.18,0,.27h-1.74v3.13a6.78,6.78,0,0,0,0,.9,1.32,1.32,0,0,0,.16.51.55.55,0,0,0,.31.24,1.67,1.67,0,0,0,.49.06,2.59,2.59,0,0,0,.43,0l.36-.07a2.11,2.11,0,0,1,.11.55q0,.28,0,.49a4.37,4.37,0,0,1-.56.1,5.63,5.63,0,0,1-.63,0,2.23,2.23,0,0,1-1.5-.47,2,2,0,0,1-.54-1.55Z"/><path class="cls-2" d="M108.77,58l.33,0h.66l.33,0v4a3.88,3.88,0,0,1,.3-.4,2.24,2.24,0,0,1,.44-.39,2.35,2.35,0,0,1,1.36-.41,2.15,2.15,0,0,1,1.74.67,3,3,0,0,1,.57,2v4.34l-.33,0h-.65l-.33,0v-4a2.46,2.46,0,0,0-.31-1.4,1.09,1.09,0,0,0-1-.45,2,2,0,0,0-.7.13,1.54,1.54,0,0,0-.59.4,1.94,1.94,0,0,0-.4.72,3.41,3.41,0,0,0-.15,1.07v3.51l-.33,0h-.65l-.33,0Z"/><path class="cls-2" d="M119,66.35a9.36,9.36,0,0,0,.92.28,4.94,4.94,0,0,0,1.18.12,2.53,2.53,0,0,0,1.64-.45,1.49,1.49,0,0,0,.54-1.21,1.64,1.64,0,0,0-.11-.64,1.24,1.24,0,0,0-.34-.46,2.54,2.54,0,0,0-.57-.35l-.8-.35L120.7,63a5.23,5.23,0,0,1-.71-.35,2.19,2.19,0,0,1-.55-.47,2.14,2.14,0,0,1-.37-.65,2.57,2.57,0,0,1-.13-.88,2.34,2.34,0,0,1,.83-1.9,3.54,3.54,0,0,1,2.33-.69,6.64,6.64,0,0,1,1.22.11,6.49,6.49,0,0,1,1,.27,4.17,4.17,0,0,1-.29,1.11,6.6,6.6,0,0,0-.84-.24,4.91,4.91,0,0,0-1.08-.11,2.13,2.13,0,0,0-1.3.34,1.2,1.2,0,0,0-.45,1,1.08,1.08,0,0,0,.11.5,1.33,1.33,0,0,0,.3.39,2.18,2.18,0,0,0,.44.3,4.79,4.79,0,0,0,.53.24l.75.29a8,8,0,0,1,.95.45,3,3,0,0,1,.71.55,2.13,2.13,0,0,1,.45.74,3,3,0,0,1,.15,1,2.68,2.68,0,0,1-.95,2.17,4,4,0,0,1-2.66.8l-.75,0a6.06,6.06,0,0,1-.62-.08,5.33,5.33,0,0,1-.55-.13l-.55-.17a3,3,0,0,1,.12-.6Q118.9,66.64,119,66.35Z"/><path class="cls-2" d="M128.5,67.82h-.72l-.24,0L125.26,61l.36,0h.74l.36,0,1.9,6.37,2-6.37a4.68,4.68,0,0,1,.65,0h.33l.37,0-2.66,8.25a6.28,6.28,0,0,1-.39.92,2.19,2.19,0,0,1-.45.6,1.48,1.48,0,0,1-.57.32,2.58,2.58,0,0,1-.73.09,4,4,0,0,1-.61,0A4.14,4.14,0,0,1,126,71a2.55,2.55,0,0,1,.05-.55,2.5,2.5,0,0,1,.16-.48l.33.09a2,2,0,0,0,.45,0,1.55,1.55,0,0,0,.33,0,.73.73,0,0,0,.29-.13,1,1,0,0,0,.25-.29,2.59,2.59,0,0,0,.22-.51Z"/><path class="cls-2" d="M132.84,66.56a4.57,4.57,0,0,0,1.66.32,2.53,2.53,0,0,0,.59-.07,1.56,1.56,0,0,0,.49-.2,1.12,1.12,0,0,0,.33-.33.78.78,0,0,0,.13-.43.88.88,0,0,0-.1-.44.94.94,0,0,0-.27-.29,1.77,1.77,0,0,0-.39-.21l-.47-.17-.47-.17a3.37,3.37,0,0,1-1.24-.72,1.49,1.49,0,0,1-.39-1.08,1.77,1.77,0,0,1,.65-1.44,2.93,2.93,0,0,1,1.9-.53,5.19,5.19,0,0,1,1,.1,6.33,6.33,0,0,1,.88.23,3.26,3.26,0,0,1-.1.53,3,3,0,0,1-.18.49,6.94,6.94,0,0,0-.7-.21,3.65,3.65,0,0,0-.88-.1,2.09,2.09,0,0,0-.88.17.62.62,0,0,0-.38.61.76.76,0,0,0,.09.39.88.88,0,0,0,.25.27,1.69,1.69,0,0,0,.37.19l.45.16.59.2a4.35,4.35,0,0,1,.61.25,1.79,1.79,0,0,1,.49.37,1.71,1.71,0,0,1,.33.53,2.21,2.21,0,0,1-.07,1.66,2,2,0,0,1-.57.7,2.73,2.73,0,0,1-.89.45,3.9,3.9,0,0,1-1.15.16,6.42,6.42,0,0,1-1.12-.09,5.73,5.73,0,0,1-.9-.23,2.66,2.66,0,0,1,.11-.54Q132.73,66.83,132.84,66.56Z"/><path class="cls-2" d="M139,62h-1l-.05-.19,2.3-2.57h.11V61h1.74a2.23,2.23,0,0,1,.05.51c0,.1,0,.19,0,.28s0,.18,0,.27h-1.74v3.13a6.77,6.77,0,0,0,0,.9,1.32,1.32,0,0,0,.16.51.55.55,0,0,0,.31.24,1.67,1.67,0,0,0,.49.06,2.59,2.59,0,0,0,.43,0l.36-.07a2.11,2.11,0,0,1,.11.55q0,.28,0,.49a4.37,4.37,0,0,1-.56.1,5.63,5.63,0,0,1-.63,0,2.23,2.23,0,0,1-1.5-.47A2,2,0,0,1,139,65.9Z"/><path class="cls-2" d="M144.28,64.71a2.24,2.24,0,0,0,.58,1.64,2.31,2.31,0,0,0,1.64.52,4.91,4.91,0,0,0,1.8-.33,2,2,0,0,1,.17.49,3.19,3.19,0,0,1,.08.57,4.48,4.48,0,0,1-1,.28,6.74,6.74,0,0,1-1.17.09,4.41,4.41,0,0,1-1.6-.26,2.82,2.82,0,0,1-1.74-1.86,4.8,4.8,0,0,1-.2-1.42,5,5,0,0,1,.19-1.42,3.2,3.2,0,0,1,.59-1.15,2.87,2.87,0,0,1,1-.78,3.33,3.33,0,0,1,1.44-.29,3,3,0,0,1,1.24.24,2.53,2.53,0,0,1,.9.66,2.88,2.88,0,0,1,.55,1A4.11,4.11,0,0,1,149,64c0,.13,0,.26,0,.39s0,.26,0,.35Zm3.39-1a2.52,2.52,0,0,0-.1-.72,1.81,1.81,0,0,0-.29-.59,1.43,1.43,0,0,0-.49-.41,1.55,1.55,0,0,0-.71-.15,1.57,1.57,0,0,0-1.25.49,2.42,2.42,0,0,0-.53,1.38Z"/><path class="cls-2" d="M150.45,61l.29,0h.56l.27,0q0,.2.08.53a4.68,4.68,0,0,1,0,.55,2.48,2.48,0,0,1,.3-.46,2.14,2.14,0,0,1,.43-.39,2.18,2.18,0,0,1,.57-.28,2.23,2.23,0,0,1,.71-.11A1.79,1.79,0,0,1,155.6,62a3.19,3.19,0,0,1,.33-.45,2.44,2.44,0,0,1,.43-.4,2.4,2.4,0,0,1,3,.28,3.09,3.09,0,0,1,.54,2v4.37l-.33,0h-.66l-.33,0v-4a2.71,2.71,0,0,0-.28-1.38,1,1,0,0,0-.92-.46,1.38,1.38,0,0,0-1.1.49,2.19,2.19,0,0,0-.42,1.46v3.88l-.33,0h-.65l-.33,0V63.73a2.68,2.68,0,0,0-.27-1.34.92.92,0,0,0-.86-.45,1.39,1.39,0,0,0-.63.15,1.47,1.47,0,0,0-.51.44,2.25,2.25,0,0,0-.35.74,3.81,3.81,0,0,0-.13,1v3.5l-.33,0h-.66l-.33,0Z"/><path class="cls-2" d="M161.48,66.56a4.57,4.57,0,0,0,1.66.32,2.53,2.53,0,0,0,.59-.07,1.56,1.56,0,0,0,.49-.2,1.12,1.12,0,0,0,.33-.33.78.78,0,0,0,.13-.43.88.88,0,0,0-.1-.44.94.94,0,0,0-.27-.29,1.77,1.77,0,0,0-.39-.21l-.47-.17-.47-.17a3.37,3.37,0,0,1-1.24-.72,1.49,1.49,0,0,1-.39-1.08,1.77,1.77,0,0,1,.65-1.44,2.93,2.93,0,0,1,1.9-.53,5.19,5.19,0,0,1,1,.1,6.34,6.34,0,0,1,.88.23,3.26,3.26,0,0,1-.1.53,3,3,0,0,1-.18.49,6.94,6.94,0,0,0-.7-.21,3.65,3.65,0,0,0-.88-.1,2.09,2.09,0,0,0-.88.17.62.62,0,0,0-.38.61.76.76,0,0,0,.09.39.87.87,0,0,0,.25.27,1.69,1.69,0,0,0,.37.19l.45.16.59.2a4.35,4.35,0,0,1,.61.25,1.79,1.79,0,0,1,.49.37,1.71,1.71,0,0,1,.33.53,2.21,2.21,0,0,1-.07,1.66,2,2,0,0,1-.57.7,2.73,2.73,0,0,1-.89.45,3.9,3.9,0,0,1-1.15.16,6.42,6.42,0,0,1-1.12-.09,5.73,5.73,0,0,1-.9-.23,2.66,2.66,0,0,1,.11-.54Q161.37,66.83,161.48,66.56Z"/><path class="cls-2" d="M78,71.72l.53-.05.47,0,.49,0H80a6.87,6.87,0,0,1,1.35.13,3.43,3.43,0,0,1,1.19.47,2.58,2.58,0,0,1,.85.9,2.85,2.85,0,0,1,.33,1.44,2.5,2.5,0,0,1-.17.95,3,3,0,0,1-.44.76,3.15,3.15,0,0,1-.61.58,4.74,4.74,0,0,1-.66.41l-.16.08,2.79,4a7.43,7.43,0,0,1-.82,0,6.52,6.52,0,0,1-.72,0l-3.07-4.45v-.05l.11,0a6.38,6.38,0,0,0,.76-.25,3.13,3.13,0,0,0,.74-.42,2.32,2.32,0,0,0,.57-.63,1.66,1.66,0,0,0,.23-.89,1.74,1.74,0,0,0-.57-1.43,2.33,2.33,0,0,0-1.53-.47h-.42l-.43,0v8.57l-.33,0h-.69l-.35,0Z"/><path class="cls-2" d="M86.35,78.24a2.24,2.24,0,0,0,.58,1.64,2.31,2.31,0,0,0,1.64.52,4.91,4.91,0,0,0,1.8-.33,2,2,0,0,1,.17.49,3.19,3.19,0,0,1,.08.57,4.48,4.48,0,0,1-1,.28,6.74,6.74,0,0,1-1.17.09,4.41,4.41,0,0,1-1.6-.26,2.82,2.82,0,0,1-1.74-1.86,4.8,4.8,0,0,1-.2-1.42,5,5,0,0,1,.19-1.42,3.2,3.2,0,0,1,.59-1.15,2.87,2.87,0,0,1,1-.78,3.33,3.33,0,0,1,1.44-.29,3,3,0,0,1,1.24.24,2.53,2.53,0,0,1,.9.66,2.88,2.88,0,0,1,.55,1,4.11,4.11,0,0,1,.19,1.26c0,.13,0,.26,0,.39s0,.26,0,.35Zm3.39-1a2.52,2.52,0,0,0-.1-.72,1.81,1.81,0,0,0-.29-.59,1.43,1.43,0,0,0-.49-.41,1.55,1.55,0,0,0-.71-.15,1.57,1.57,0,0,0-1.25.49,2.42,2.42,0,0,0-.53,1.38Z"/><path class="cls-2" d="M92.4,80.1a4.57,4.57,0,0,0,1.66.32,2.53,2.53,0,0,0,.59-.07,1.56,1.56,0,0,0,.49-.2,1.12,1.12,0,0,0,.33-.33.78.78,0,0,0,.13-.43.88.88,0,0,0-.1-.44.94.94,0,0,0-.27-.29,1.77,1.77,0,0,0-.39-.21l-.47-.17-.47-.17a3.37,3.37,0,0,1-1.24-.72,1.49,1.49,0,0,1-.39-1.08,1.77,1.77,0,0,1,.65-1.44,2.93,2.93,0,0,1,1.9-.53,5.19,5.19,0,0,1,1,.1,6.33,6.33,0,0,1,.88.23,3.25,3.25,0,0,1-.1.53,3,3,0,0,1-.18.49,6.94,6.94,0,0,0-.7-.21,3.65,3.65,0,0,0-.88-.1,2.09,2.09,0,0,0-.88.17.62.62,0,0,0-.38.61.76.76,0,0,0,.09.39.87.87,0,0,0,.25.27,1.69,1.69,0,0,0,.37.19l.45.16.59.2a4.35,4.35,0,0,1,.61.25,1.79,1.79,0,0,1,.49.37,1.71,1.71,0,0,1,.33.53,2.21,2.21,0,0,1-.07,1.66,2,2,0,0,1-.57.7,2.73,2.73,0,0,1-.89.45,3.9,3.9,0,0,1-1.15.16A6.42,6.42,0,0,1,93,81.42a5.73,5.73,0,0,1-.9-.23,2.66,2.66,0,0,1,.11-.54Q92.29,80.37,92.4,80.1Z"/><path class="cls-2" d="M99.32,78.24a2.24,2.24,0,0,0,.58,1.64,2.31,2.31,0,0,0,1.64.52,4.91,4.91,0,0,0,1.8-.33,2,2,0,0,1,.17.49,3.19,3.19,0,0,1,.08.57,4.48,4.48,0,0,1-1,.28,6.74,6.74,0,0,1-1.17.09,4.41,4.41,0,0,1-1.6-.26,2.82,2.82,0,0,1-1.74-1.86,4.8,4.8,0,0,1-.2-1.42,5,5,0,0,1,.19-1.42,3.2,3.2,0,0,1,.59-1.15,2.87,2.87,0,0,1,1-.78,3.33,3.33,0,0,1,1.44-.29,3,3,0,0,1,1.24.24,2.53,2.53,0,0,1,.9.66,2.88,2.88,0,0,1,.55,1,4.11,4.11,0,0,1,.19,1.26c0,.13,0,.26,0,.39s0,.26,0,.35Zm3.39-1a2.52,2.52,0,0,0-.1-.72,1.81,1.81,0,0,0-.29-.59,1.43,1.43,0,0,0-.49-.41,1.55,1.55,0,0,0-.71-.15,1.57,1.57,0,0,0-1.25.49,2.42,2.42,0,0,0-.53,1.38Z"/><path class="cls-2" d="M109.12,76.83a1.3,1.3,0,0,0-.4-1.1,1.88,1.88,0,0,0-1.16-.31,5,5,0,0,0-.88.07,6.69,6.69,0,0,0-.8.19,2.08,2.08,0,0,1-.25-1.06,6.16,6.16,0,0,1,1-.23,7.28,7.28,0,0,1,1.06-.08,3,3,0,0,1,2,.61,2.46,2.46,0,0,1,.69,1.94v4.29q-.47.11-1.14.22a8.14,8.14,0,0,1-1.36.11,5.35,5.35,0,0,1-1.18-.12,2.41,2.41,0,0,1-.9-.39,1.8,1.8,0,0,1-.57-.68,2.29,2.29,0,0,1-.2-1,2,2,0,0,1,.87-1.73,2.83,2.83,0,0,1,.92-.43A4.21,4.21,0,0,1,108,77l.7,0,.46,0Zm0,1.3-.51-.05-.52,0a2.17,2.17,0,0,0-1.26.31,1.07,1.07,0,0,0-.43.94,1.15,1.15,0,0,0,.15.63,1,1,0,0,0,.37.35,1.27,1.27,0,0,0,.49.15l.51,0a6.3,6.3,0,0,0,.63,0,3.82,3.82,0,0,0,.58-.1Z"/><path class="cls-2" d="M112.14,74.49l.28,0H113l.27,0q0,.2.08.53a4.68,4.68,0,0,1,0,.55,2.77,2.77,0,0,1,.74-.79,2,2,0,0,1,1.18-.33h.22l.19,0a2.21,2.21,0,0,1,0,.25c0,.09,0,.18,0,.28a2.91,2.91,0,0,1,0,.33q0,.17,0,.33l-.22,0h-.18a2.33,2.33,0,0,0-.69.1,1.44,1.44,0,0,0-.59.35,1.76,1.76,0,0,0-.41.7,3.5,3.5,0,0,0-.15,1.14v3.41l-.33,0h-.65l-.34,0Z"/><path class="cls-2" d="M121.21,80.15a2.13,2.13,0,0,1,.19.47,2.5,2.5,0,0,1,.09.57,5,5,0,0,1-1.8.31,3.28,3.28,0,0,1-2.58-1,3.77,3.77,0,0,1-.87-2.61,4.54,4.54,0,0,1,.21-1.42,3.21,3.21,0,0,1,.63-1.14,3,3,0,0,1,1-.76,3.54,3.54,0,0,1,1.46-.28,6.48,6.48,0,0,1,1,.07,4.09,4.09,0,0,1,.82.21,2.73,2.73,0,0,1-.06.53,2.28,2.28,0,0,1-.17.53,4.56,4.56,0,0,0-1.5-.23,1.79,1.79,0,0,0-1.54.68,3,3,0,0,0-.51,1.8,2.62,2.62,0,0,0,.57,1.88,2.09,2.09,0,0,0,1.58.59,4.77,4.77,0,0,0,.74-.05A3.37,3.37,0,0,0,121.21,80.15Z"/><path class="cls-2" d="M122.75,71.55l.33,0h.66l.33,0v4a3.88,3.88,0,0,1,.3-.4,2.24,2.24,0,0,1,.44-.39,2.35,2.35,0,0,1,1.36-.41,2.15,2.15,0,0,1,1.74.67,3,3,0,0,1,.57,2v4.34l-.33,0h-.65l-.33,0v-4a2.46,2.46,0,0,0-.31-1.4,1.09,1.09,0,0,0-1-.45,2,2,0,0,0-.7.13,1.54,1.54,0,0,0-.59.4,1.94,1.94,0,0,0-.4.72,3.4,3.4,0,0,0-.15,1.07v3.51l-.33,0h-.65l-.33,0Z"/><polygon class="cls-3" points="53.17 52.64 52.72 81.98 82.07 96.48 53.17 52.64"/><polygon class="cls-2" points="22.14 49.15 52.03 52.62 51.6 81.65 22.14 49.15"/><polygon class="cls-4" points="32.41 21.82 22.59 48.03 37.27 49.8 32.41 21.82"/><polygon class="cls-5" points="20.18 22.02 19.06 20.17 5.83 36.24 20.18 22.02"/><polygon class="cls-6" points="31.19 21.78 27.01 32.88 5.11 30.99 31.19 21.78"/><polygon class="cls-3" points="69.89 36.09 52.18 51.5 43.51 50.51 41.89 36.58 69.89 36.09"/><polygon class="cls-1" points="21.39 49.95 50.02 81.56 41.76 82.2 21.39 49.95"/><polygon class="cls-7" points="44.56 83.01 48.6 82.75 50.14 87.33 49.3 94.62 46.66 94.29 47.15 87.49 44.56 83.01"/><polygon class="cls-7" points="49.85 82.75 53.98 84.53 54.19 88.03 52.52 95.82 50.4 94.97 51.33 87.38 49.85 82.75"/><polygon class="cls-5" points="1.32 32.2 2.16 35.32 5 34.68 1.32 32.2"/><polygon class="cls-5" points="10.09 40.79 11.77 38.49 7.98 36.88 10.09 40.79"/><polygon class="cls-5" points="2.59 39.96 5.09 41.31 6.17 37.34 2.59 39.96"/><polygon class="cls-8" points="33.55 21.78 34.38 26.07 40.48 25.72 33.55 21.78"/><polygon class="cls-2" points="53.44 20.34 69.89 34.97 41.89 35.42 53.44 20.34"/><path class="cls-1" d="M64.72,0"/><polyline class="cls-1" points="64.42 0 54.19 19.49 69.89 33.41"/><text></text><path class="cls-8" d="M120.38,25.81l3.93-5.54,1.34-1.9q.62-.88,1.07-1.66a10.29,10.29,0,0,0,.71-1.48,3.87,3.87,0,0,0,.26-1.37,2.09,2.09,0,0,0-.78-1.75,3.56,3.56,0,0,0-2.22-.61,6,6,0,0,0-1.76.24,6.48,6.48,0,0,0-1.37.58q-.3-.72-.55-1.47a6,6,0,0,1-.3-1.49q.57-.25,1.09-.43t1.07-.32A9.67,9.67,0,0,1,124,8.39a10.68,10.68,0,0,1,1.32-.07,7.87,7.87,0,0,1,2.37.35,6,6,0,0,1,1.94,1,4.64,4.64,0,0,1,1.3,1.63,5,5,0,0,1,.47,2.21,7.52,7.52,0,0,1-.21,1.8,8.63,8.63,0,0,1-.62,1.7,15.59,15.59,0,0,1-1,1.75q-.6.91-1.37,2l-1.74,2.39h5.37a7.71,7.71,0,0,1,.15,1.52,8,8,0,0,1-.15,1.57H120.55Z"/><path class="cls-8" d="M139.86,26.48a6.17,6.17,0,0,1-3-.67,5.42,5.42,0,0,1-2-1.88,8.69,8.69,0,0,1-1.13-2.88,17.46,17.46,0,0,1-.36-3.67,17.28,17.28,0,0,1,.36-3.65,8.7,8.7,0,0,1,1.13-2.87,5.43,5.43,0,0,1,2-1.88,7,7,0,0,1,6,0,5.4,5.4,0,0,1,2,1.88A8.71,8.71,0,0,1,146,13.73a17.3,17.3,0,0,1,.36,3.65,17.48,17.48,0,0,1-.36,3.67,8.71,8.71,0,0,1-1.13,2.88,5.4,5.4,0,0,1-2,1.88A6.19,6.19,0,0,1,139.86,26.48Zm0-3.11a2.07,2.07,0,0,0,1.91-1.47,11.87,11.87,0,0,0,.65-4.52,11.77,11.77,0,0,0-.65-4.51,2,2,0,0,0-3.83,0,11.76,11.76,0,0,0-.65,4.51,11.86,11.86,0,0,0,.65,4.52A2.07,2.07,0,0,0,139.86,23.38Z"/><path class="cls-8" d="M152.18,23.18V13.11l-3,1.17q-.25-.32-.46-.65a6.55,6.55,0,0,1-.39-.67,8.28,8.28,0,0,1-.52-1.39L155,8.44h.72V23.18h3.55a7.6,7.6,0,0,1,.1.78q0,.36,0,.71t0,.75a7.65,7.65,0,0,1-.1.77H148.6a7.55,7.55,0,0,1-.1-.77q0-.35,0-.75t0-.71a7.51,7.51,0,0,1,.1-.78Z"/><path class="cls-8" d="M163.44,16.72a4.74,4.74,0,0,1-1.6-1.57,4.12,4.12,0,0,1-.63-2.26,4.16,4.16,0,0,1,.42-1.89,4.34,4.34,0,0,1,1.16-1.44,5.28,5.28,0,0,1,1.74-.92,7.48,7.48,0,0,1,4.35,0,5.28,5.28,0,0,1,1.74.92A4.35,4.35,0,0,1,171.76,11a4.17,4.17,0,0,1,.42,1.89,4,4,0,0,1-.65,2.25,5.15,5.15,0,0,1-1.62,1.58,7.76,7.76,0,0,1,1.11.68,4.48,4.48,0,0,1,1,1,5.42,5.42,0,0,1,.7,1.34,5.08,5.08,0,0,1,.27,1.73,4.65,4.65,0,0,1-.53,2.3A4.6,4.6,0,0,1,171,25.33a6,6,0,0,1-2,.88,10,10,0,0,1-4.65,0,6,6,0,0,1-2-.88,4.59,4.59,0,0,1-1.42-1.57,4.64,4.64,0,0,1-.53-2.3,5.21,5.21,0,0,1,.26-1.7,4.9,4.9,0,0,1,.7-1.34,5.33,5.33,0,0,1,1-1A5.86,5.86,0,0,1,163.44,16.72Zm3.23,1.37a4.79,4.79,0,0,0-1.94,1.16,2.63,2.63,0,0,0-.75,1.93,2.33,2.33,0,0,0,.71,1.81,3.46,3.46,0,0,0,4,0,2.38,2.38,0,0,0,.68-1.81,2.58,2.58,0,0,0-.77-1.94A5.08,5.08,0,0,0,166.67,18.08Zm0-2.46a4.17,4.17,0,0,0,1.6-1,2.23,2.23,0,0,0,.61-1.65,1.85,1.85,0,0,0-.56-1.4,2.31,2.31,0,0,0-1.65-.53,2.26,2.26,0,0,0-1.64.53,1.87,1.87,0,0,0-.55,1.4,2.23,2.23,0,0,0,.61,1.65A4.19,4.19,0,0,0,166.69,15.62Z"/></g></g></svg>