<?xml version="1.0" encoding="utf-8"?>
<!-- Generator: Adobe Illustrator 21.1.0, SVG Export Plug-In . SVG Version: 6.00 Build 0)  -->
<svg version="1.1" id="Layer_1" xmlns="http://www.w3.org/2000/svg" xmlns:xlink="http://www.w3.org/1999/xlink" x="0px" y="0px"
	 viewBox="0 0 160.2 76.6" style="enable-background:new 0 0 160.2 76.6;" xml:space="preserve">
<style type="text/css">
	.st0{display:none;}
	.st1{fill:#FFFFFF;}
</style>
<rect x="-9.3" y="-10" class="st0" width="181.5" height="96.3"/>
<g id="hsg">
	<path id="h" class="st1" d="M71,6.2C71.7,6,72.4,6,73.2,5.9c0.7,0,1.4-0.1,2.1-0.1c0.7,0,1.4,0,2.1,0.1c0.7,0,1.5,0.1,2.2,0.2v16.7
		c0.3-0.4,0.7-0.8,1.1-1.3c0.5-0.5,1-1,1.7-1.5c0.7-0.5,1.5-0.9,2.5-1.2c1-0.3,2.1-0.5,3.3-0.5c3.5,0,6.1,1,7.9,2.9
		c1.8,1.9,2.7,5,2.7,9.2v20.1c-0.7,0.1-1.5,0.2-2.2,0.2C96,51,95.3,51,94.6,51c-0.7,0-1.4,0-2.1-0.1c-0.7,0-1.5-0.1-2.2-0.2V32.9
		c0-2.2-0.3-3.9-1-5.1c-0.7-1.2-1.9-1.8-3.5-1.8c-0.7,0-1.4,0.1-2.1,0.3c-0.7,0.2-1.4,0.6-2,1.2c-0.6,0.6-1.1,1.4-1.5,2.5
		c-0.4,1.1-0.6,2.4-0.6,4.1v16.6c-0.7,0.1-1.5,0.2-2.2,0.2C76.7,51,76,51,75.3,51c-0.7,0-1.4,0-2.1-0.1c-0.7,0-1.4-0.1-2.2-0.2V6.2z
		"/>
	<path id="s" class="st1" d="M110.5,36.9c-2.3-0.6-4-1.6-5.3-2.9c-1.3-1.3-1.9-3.2-1.9-5.8c0-3.1,1.1-5.5,3.3-7.2
		c2.2-1.7,5.2-2.6,9-2.6c1.6,0,3.1,0.1,4.7,0.4c1.5,0.3,3.1,0.7,4.7,1.3c-0.1,1.1-0.3,2.2-0.6,3.3c-0.3,1.1-0.7,2.1-1.2,3
		c-1-0.4-2-0.8-3.2-1.1c-1.2-0.3-2.4-0.5-3.7-0.5c-1.4,0-2.5,0.2-3.2,0.6c-0.8,0.4-1.2,1.1-1.2,2c0,0.9,0.3,1.5,0.8,1.9
		c0.5,0.4,1.3,0.7,2.3,1l3.5,1c1.1,0.3,2.2,0.7,3.1,1.2c0.9,0.5,1.7,1,2.3,1.7c0.6,0.7,1.2,1.5,1.5,2.6c0.4,1,0.5,2.3,0.5,3.7
		c0,1.5-0.3,2.9-0.9,4.2c-0.6,1.3-1.5,2.4-2.7,3.4c-1.2,1-2.6,1.7-4.4,2.3c-1.7,0.5-3.6,0.8-5.8,0.8c-1,0-1.9,0-2.7-0.1
		c-0.8-0.1-1.6-0.2-2.3-0.3c-0.8-0.1-1.5-0.3-2.2-0.5c-0.7-0.2-1.5-0.5-2.4-0.8c0.1-1.1,0.3-2.2,0.6-3.3c0.3-1.1,0.7-2.2,1.2-3.3
		c1.3,0.5,2.6,0.9,3.8,1.2c1.2,0.3,2.4,0.4,3.7,0.4c0.6,0,1.2-0.1,1.9-0.2c0.7-0.1,1.3-0.3,1.9-0.5c0.6-0.3,1-0.6,1.4-1
		c0.4-0.4,0.6-1,0.6-1.7c0-1-0.3-1.7-0.9-2.1c-0.6-0.4-1.4-0.8-2.5-1.1L110.5,36.9z"/>
	<path id="g" class="st1" d="M142.4,35.1c1.7,0,2.9-0.5,3.7-1.5c0.7-1,1.1-2.3,1.1-4c0-1.7-0.4-3.1-1.1-4c-0.8-1-2-1.5-3.7-1.5
		c-1.7,0-3,0.5-3.8,1.5c-0.8,1-1.2,2.3-1.2,4c0,1.7,0.4,3,1.2,4C139.4,34.6,140.7,35.1,142.4,35.1 M139.9,51.7
		c-0.9,0-1.6,0.1-2.2,0.3c-0.6,0.2-1.1,0.6-1.4,0.9c-0.3,0.4-0.6,0.8-0.7,1.3c-0.1,0.5-0.2,0.9-0.2,1.4c0,1.5,0.6,2.6,1.7,3.1
		c1.2,0.5,2.7,0.8,4.7,0.8c2.6,0,4.6-0.4,6.2-1.2c1.6-0.8,2.3-1.9,2.3-3.3c0-0.4-0.1-0.8-0.2-1.2c-0.1-0.4-0.3-0.7-0.6-1
		c-0.3-0.3-0.7-0.6-1.2-0.8c-0.5-0.2-1.2-0.3-2-0.3L139.9,51.7z M147.7,45.4c3.7,0.1,6.4,0.9,8.2,2.5c1.7,1.6,2.6,3.8,2.6,6.7
		c0,1.7-0.4,3.3-1.3,4.7c-0.9,1.4-2.1,2.6-3.7,3.6c-1.5,1-3.4,1.7-5.5,2.3c-2.1,0.5-4.4,0.8-6.8,0.8c-2.4,0-4.5-0.2-6.2-0.6
		c-1.7-0.4-3.1-0.9-4.2-1.6c-1.1-0.7-1.8-1.5-2.3-2.6c-0.5-1-0.7-2.1-0.7-3.3c0-1.8,0.4-3.3,1.3-4.5c0.9-1.2,2-2.2,3.5-3.1
		c-0.9-0.6-1.7-1.3-2.2-2.1c-0.5-0.8-0.8-1.9-0.8-3.2c0-1.5,0.3-2.8,1-3.8c0.6-1,1.6-1.9,2.9-2.8c-1.4-1-2.5-2.3-3.3-3.7
		c-0.8-1.5-1.2-3.1-1.2-4.9c0-1.6,0.3-3.1,0.9-4.4c0.6-1.4,1.5-2.5,2.6-3.5c1.2-1,2.6-1.8,4.2-2.3c1.7-0.6,3.5-0.9,5.6-0.9
		c2,0,3.9,0.3,5.6,0.9c1.7,0.6,3.1,1.4,4.3,2.4c0.8-1,1.7-1.8,2.9-2.3c1.1-0.5,2.7-0.8,4.6-0.8c0.1,0.5,0.2,1,0.2,1.6
		c0.1,0.5,0.1,1,0.1,1.6c0,0.6,0,1.3-0.1,1.9c0,0.6-0.1,1.3-0.2,2h-4.9c0.2,0.4,0.4,0.9,0.5,1.5c0.2,0.6,0.2,1.3,0.2,2.3
		c0,1.6-0.3,3.1-0.9,4.4c-0.6,1.4-1.5,2.5-2.6,3.5c-1.1,1-2.5,1.7-4.2,2.3c-1.6,0.6-3.5,0.9-5.6,0.9c-1.7,0-3.3-0.2-4.7-0.5
		c-0.7,0.4-1.1,0.9-1.3,1.4c-0.2,0.5-0.2,1-0.2,1.4c0,0.6,0.2,1.2,0.6,1.6c0.4,0.4,1.3,0.6,2.6,0.7L147.7,45.4z"/>
</g>
<g id="hoops">
	<path class="st1" d="M30.4,2.7c-0.2-0.9-0.6-1.8-1.4-2.3c-0.8-0.5-1.8-0.5-2.7-0.3c-0.9,0.3-1.8,0.8-2.8,1.5
		C21.7,3.1,19.7,5.3,18,8c-2.5,4.1-3.9,8.1-3.4,10.8c0,0.2,0.1,0.4,0.1,0.6c0.2,0.7,0.6,1.3,1.3,1.8c0,0,0,0,0,0
		c0.8,0.5,1.8,0.5,2.7,0.3c0.9-0.3,1.8-0.8,2.8-1.5c1.9-1.4,3.8-3.6,5.5-6.3c0.6-1,1.2-2.1,1.7-3.1c-0.1,0-0.1,0.1-0.2,0.1
		c-0.1,0-0.2,0.1-0.3,0.1c-0.2,0.1-0.3,0.2-0.5,0.3c-0.1,0.1-0.2,0.1-0.4,0.2c-0.2,0.1-0.3,0.2-0.5,0.3c-0.6,0.3-1.2,0.7-1.7,1.1
		c-2.3,3.7-5.3,6.3-7,6.7c-0.3,0.1-0.6,0.1-0.8,0.1c-0.1,0-0.2,0-0.3-0.1c-0.2-0.1-0.4-0.3-0.5-0.9c-0.1-0.3-0.1-0.7,0-1.2
		c0-0.4,0.1-0.7,0.2-1.2c0.4-2,1.4-4.5,3-7c2.3-3.8,5.4-6.5,7.1-6.9c0.6-0.2,0.9-0.1,1,0c0.2,0.1,0.4,0.3,0.5,0.9
		c0.1,0.6,0.1,1.4-0.1,2.4c-0.2,1-0.6,2.2-1.2,3.5c0.5-0.3,0.9-0.5,1.4-0.7c0.1-0.1,0.2-0.1,0.3-0.2C29,8,29.3,7.8,29.6,7.7
		c0,0,0,0,0,0c0.1,0,0.1-0.1,0.2-0.1C30.4,5.8,30.6,4.1,30.4,2.7"/>
	<path class="st1" d="M38.9,7.7c-0.9-1-2.2-1.4-3.6-1.4c-1.4,0-3,0.4-4.7,1c-0.3,0.1-0.5,0.2-0.8,0.3c-0.1,0-0.1,0.1-0.2,0.1
		c0,0,0,0,0,0C29.3,7.8,29,8,28.8,8.1c-0.1,0-0.2,0.1-0.3,0.2C28,8.5,27.5,8.7,27.1,9c-2.5,1.4-5.1,3.2-7.6,5.5
		c-1,0.9-2,1.9-2.9,2.8c0,0.5,0,0.9,0,1.2c0.1,0.6,0.3,0.8,0.5,0.9c0.1,0,0.2,0.1,0.3,0.1c1-1.2,2.2-2.3,3.5-3.5
		c1.4-1.3,2.8-2.4,4.2-3.3c0.6-0.4,1.2-0.8,1.7-1.1c0.2-0.1,0.3-0.2,0.5-0.3c0.1-0.1,0.2-0.1,0.4-0.2c0.2-0.1,0.3-0.2,0.5-0.3
		c0.1,0,0.2-0.1,0.3-0.1c0.1,0,0.1-0.1,0.2-0.1c0.3-0.2,0.6-0.3,0.9-0.5c2.3-1.1,4.2-1.7,5.7-1.6c1,0,1.7,0.3,2.1,0.7
		c0.3,0.3,0.4,0.7,0.5,1.3c0,0.1,0,0.2,0,0.4c0,0,0,0,0,0c0,0.1,0,0.3,0,0.4c0,0.1,0,0.3-0.1,0.4c0,0,0,0,0,0.1
		c0,0.1-0.1,0.3-0.1,0.4c0,0,0,0,0,0c-0.1,0.3-0.2,0.6-0.3,0.9c-0.2,0.6-0.5,1.3-0.9,2c-0.5,0.9-1.1,1.9-1.8,2.8
		c1-0.3,2-0.5,2.9-0.7c1.1-1.9,1.9-3.8,2.2-5.4l0,0c0-0.1,0-0.2,0.1-0.3c0-0.2,0-0.3,0-0.5C39.9,9.7,39.6,8.6,38.9,7.7"/>
	<path class="st1" d="M28.5,24.6c-4.5,4-9.3,6.6-12.6,7.4c-0.3,0.1-0.5,0.1-0.8,0.1c-0.1,0-0.2,0-0.3,0c-0.1,0-0.2,0-0.2,0
		c-0.2,0-0.4,0-0.5,0c-0.1,0-0.3,0-0.4,0c0,0,0,0,0,0c-0.1,0-0.2,0-0.4,0c-0.6-0.1-1-0.3-1.3-0.6c-0.1-0.1-0.2-0.3-0.3-0.5
		c-0.1-0.4-0.2-0.9-0.1-1.6c0-0.3,0.1-0.7,0.2-1.1c0.2-0.8,0.6-1.7,1.1-2.7c0.3-0.5,0.6-1.1,0.9-1.6c0.3-0.4,0.6-0.8,0.9-1.3
		c0,0,0,0,0,0c0.3-0.4,0.6-0.9,1-1.3v0c0.1-0.1,0.2-0.2,0.2-0.3c-0.6-0.4-1-1.1-1.2-1.8c-0.7,0.9-1.4,1.7-1.9,2.5c0,0,0,0,0,0
		c-0.2,0.3-0.4,0.6-0.6,0.9c0,0,0,0,0,0c-1.5,2.3-2.4,4.5-2.6,6.4c0,0.3,0,0.6,0,0.9c0,0.8,0.2,1.6,0.6,2.2c0.1,0.2,0.2,0.4,0.4,0.6
		c0.5,0.5,1,0.9,1.7,1.1c0,0,0,0,0,0c0.3,0.1,0.6,0.2,0.9,0.2c0,0,0.1,0,0.1,0c0.1,0,0.3,0,0.4,0c0.2,0,0.3,0,0.5,0
		c1.4,0,3-0.4,4.7-1c3.4-1.3,7.3-3.8,11.1-7.1c2.4-2.1,4.4-4.4,6-6.5c-1.1,0.3-2.3,0.6-3.4,1C31.3,22,30,23.3,28.5,24.6"/>
	<path class="st1" d="M52,57.3c-0.1-0.1-0.2-0.2-0.3-0.3c-0.7-0.6-1.7-0.8-2.6-0.6c-2.8,0.4-6.2,2.9-9.3,6.6
		c-1.8,2.2-3.2,4.4-4.1,6.4c0.2-0.1,0.4-0.2,0.7-0.3c0.8-0.3,1.5-0.7,2.3-1.1c0.7-1.2,1.6-2.5,2.6-3.7c1.9-2.3,4-4,5.8-5
		c0.9-0.5,1.7-0.8,2.2-0.8c0.6-0.1,0.9,0,1,0.2c0.1,0.1,0.2,0.2,0.2,0.4c0,0.1,0.1,0.3,0.1,0.5c0,0.8-0.2,1.8-0.8,3.1
		c-0.7,1.7-2,3.8-3.7,5.7c-1.9,2.3-4,4-5.8,5c-0.9,0.5-1.6,0.8-2.2,0.8c-0.6,0.1-0.9,0-1-0.2c-0.1-0.1-0.3-0.4-0.3-1
		c0-0.6,0.1-1.3,0.4-2.2c-0.7,0.3-1.5,0.6-2.2,0.9c0,0,0,0,0,0c-0.1,0-0.1,0-0.2,0.1c-0.1,0.4-0.1,0.9-0.1,1.3
		c0,0.9,0.3,1.9,1.1,2.5c0.7,0.6,1.7,0.8,2.6,0.6c2.8-0.4,6.2-2.9,9.3-6.6c2.1-2.4,3.6-5,4.3-7.2c0.4-1,0.6-2,0.6-2.9
		c0-0.1,0-0.1,0-0.2C52.7,58.7,52.5,57.9,52,57.3"/>
	<path class="st1" d="M55.6,50.3c-0.2-0.3-0.4-0.5-0.6-0.7c-0.5-0.5-1.2-0.8-1.9-1c-0.1,0-0.3-0.1-0.4-0.1c-0.2,0-0.3-0.1-0.5-0.1
		c-0.1,0-0.2,0-0.3,0h0c-4.1-0.4-10.3,1.8-16.5,5.8c-4.2,2.8-7.6,6-9.7,8.9c-0.4,0.5-0.7,1-1,1.5c1-0.3,2.1-0.6,3.1-0.9
		c2-2.5,5-5.3,8.7-7.8c4-2.7,8.1-4.5,11.3-5.2c0.8-0.2,1.5-0.3,2.2-0.3c0.3,0,0.7,0,1,0c0,0,0,0,0,0c0.1,0,0.1,0,0.2,0
		c0.1,0,0.2,0,0.2,0c0,0,0,0,0.1,0c0.1,0,0.3,0,0.4,0c0.1,0,0.3,0,0.4,0.1c0,0,0,0,0,0c0.1,0,0.2,0.1,0.3,0.1
		c0.4,0.1,0.6,0.3,0.8,0.5c0.1,0.1,0.2,0.2,0.3,0.3c0.3,0.5,0.4,1.1,0.1,2.2c-0.3,1.1-1,2.4-2,3.8c0.5,0.6,0.7,1.4,0.8,2.2
		c0,0.1,0,0.1,0,0.2c0.1-0.2,0.3-0.3,0.4-0.5c0,0,0,0,0,0c0.2-0.3,0.5-0.6,0.7-0.9c1.1-1.5,1.8-2.9,2.2-4.3
		C56.4,52.7,56.3,51.4,55.6,50.3"/>
	<path class="st1" d="M50.1,59.6c-0.1,0.1-0.1,0.1-0.2,0.2c-0.1,0.1-0.3,0.3-0.4,0.4c-0.1,0.1-0.2,0.2-0.3,0.3
		c-0.1,0.1-0.3,0.3-0.4,0.4c-1.7,1.6-3.6,3.2-5.9,4.6c-1.4,0.9-2.8,1.8-4.2,2.5c-0.8,0.4-1.6,0.8-2.3,1.1c-0.2,0.1-0.5,0.2-0.7,0.3
		c-0.3,0.1-0.6,0.2-0.8,0.3c0,0,0,0,0,0c-0.5,0.2-1,0.4-1.5,0.5c-0.6,0.2-1.2,0.4-1.8,0.5c-1.6,0.4-3,0.5-4,0.3
		c-1-0.2-1.6-0.5-1.9-1c-0.2-0.3-0.3-0.8-0.3-1.4c0-0.1,0-0.2,0-0.4c0,0,0,0,0,0c0-0.1,0-0.3,0.1-0.4c0-0.2,0.1-0.3,0.2-0.5
		c0-0.1,0.1-0.2,0.1-0.2c0-0.1,0.1-0.2,0.1-0.3c0.1-0.2,0.2-0.3,0.2-0.5c-0.8,0.2-1.7,0.4-2.5,0.6c0,0.1-0.1,0.3-0.1,0.4
		c0,0.2-0.1,0.3-0.1,0.5c0,0.1,0,0.3-0.1,0.4c0,0,0,0.1,0,0.1c0,0.3,0,0.6,0,0.9c0,0,0,0,0,0c0,0.7,0.2,1.3,0.6,1.9
		c0.7,1.1,2,1.7,3.4,1.9c1.9,0.3,4.2-0.1,6.8-0.9c0,0,0,0,0,0c0.3-0.1,0.5-0.2,0.8-0.3c0.1,0,0.1,0,0.2-0.1c0,0,0,0,0,0
		c0.7-0.3,1.4-0.5,2.2-0.9c2.2-1,4.5-2.2,6.8-3.7c2.2-1.5,4.2-3,5.8-4.6c0.5-1.3,0.8-2.4,0.8-3.1c0-0.2,0-0.4-0.1-0.5
		C50.4,59.2,50.3,59.4,50.1,59.6"/>
	<path class="st1" d="M59.2,38.9c-0.4-0.8-1-1.3-1.8-1.8c-0.5-0.3-1.2-0.5-1.8-0.7c-0.2,0-0.4-0.1-0.6-0.1c-5.5-1-14.9,1.6-24.6,6.8
		c-6.5,3.5-11.9,7.6-15.4,11.4c-0.8,0.9-1.6,1.8-2.2,2.7c0.1,0.2,0.2,0.4,0.3,0.6c0.1,0.5-0.2,0.9-0.6,1.1c-0.1,0-0.2,0.1-0.3,0.1
		l0,0c-0.2,0-0.3,0-0.4,0c-0.2,0.4-0.4,0.7-0.5,1.1c-0.7,1.7-0.9,3.5-0.1,4.9c0.8,1.5,2.4,2.3,4.2,2.6c2.2,0.4,5.1,0.2,8.4-0.5
		c0.8-0.2,1.6-0.4,2.5-0.6c4.2-1.2,9-3.1,13.8-5.7c5.5-3,10.2-6.3,13.7-9.6c-0.2-0.2-0.5-0.3-0.8-0.5c-0.1,0-0.2-0.1-0.3-0.1
		c0,0,0,0,0,0c-0.1,0-0.3-0.1-0.4-0.1c-0.1,0-0.3,0-0.4,0c0,0,0,0-0.1,0c-0.1,0-0.2,0-0.2,0c-3.2,2.8-7.3,5.8-12.2,8.4
		c-0.1,0-0.1,0.1-0.2,0.1c-3.8,2.1-7.6,3.7-11.1,4.8c-1.1,0.4-2.1,0.7-3.1,0.9c-1.1,0.3-2.1,0.5-3.1,0.7c-2.4,0.4-4.5,0.5-6,0.2
		c-1.5-0.3-2.4-0.9-2.8-1.6c-0.4-0.7-0.4-1.7,0.2-3.2c0.3-0.7,0.7-1.4,1.2-2.2c-0.5,0-0.9-0.4-1-0.9c-0.1-0.6,0.3-1.1,0.8-1.2
		c0.5-0.1,1,0.2,1.2,0.7c0.1-0.1,0.2-0.3,0.3-0.4c0.1-0.3,0.3-0.6,0.6-0.7c3.3-3.6,8.6-7.7,15.1-11.2c6.3-3.4,12.5-5.6,17.3-6.4
		c2-0.3,3.7-0.4,5.1-0.3c0.3,0,0.6,0.1,0.8,0.1c0.4,0.1,0.8,0.2,1.1,0.3c0.9,0.3,1.4,0.8,1.7,1.3c0.4,0.7,0.4,1.7-0.2,3.2
		c-0.7,1.6-2.1,3.5-4.1,5.5c0.7,0.2,1.4,0.5,1.9,1c0.1-0.1,0.2-0.2,0.3-0.3c1.8-1.9,3.1-3.7,3.8-5.5C59.8,42.1,60,40.4,59.2,38.9"/>
	<path class="st1" d="M54.1,19.8c-0.7-1.5-2.1-2.5-3.9-3c-1.8-0.5-4.1-0.7-6.7-0.5c-1.8,0.1-3.8,0.4-5.9,0.9
		c-0.9,0.2-1.9,0.4-2.9,0.7c-3.1,0.8-6.4,1.9-9.7,3.3c-5.1,2.2-9.6,4.6-13.2,7.2c-0.1,0.4-0.2,0.7-0.2,1.1c-0.1,0.7,0,1.2,0.1,1.6
		c3.6-2.8,8.4-5.6,14-7.9c0.1,0,0.1-0.1,0.2-0.1c2.2-0.9,4.4-1.7,6.5-2.4c1.2-0.4,2.3-0.7,3.4-1c5.8-1.4,10.8-1.8,13.7-0.9
		c1.5,0.4,2.3,1.1,2.6,1.8c0.3,0.7,0.2,1.8-0.5,3.1c-0.4,0.8-1.1,1.7-2,2.7c0,0,0,0,0,0c0.6-0.1,1.1,0.4,1.1,0.9
		c0,0.5-0.2,0.9-0.6,1c-0.1,0-0.2,0.1-0.3,0.1c-0.6,0.1-1.1-0.4-1.1-0.9c0-0.1,0-0.1,0-0.2c-0.1,0.1-0.2,0.2-0.3,0.3
		c0.1,0.5-0.2,0.9-0.6,1.1c-0.1,0-0.2,0.1-0.3,0.1c-0.1,0-0.3,0-0.4,0c-3.6,3.1-9,6.3-15.3,8.9c-6.9,2.9-13.7,4.5-18.6,4.8
		c-0.5,0-1.1,0-1.5,0c-0.1,0-0.3,0-0.4,0c-0.5,0-1-0.1-1.5-0.1c-0.6-0.1-1.2-0.2-1.8-0.3c-1.5-0.4-2.3-1.1-2.6-1.8
		c-0.3-0.7-0.2-1.8,0.5-3.1c0.7-1.3,2.1-2.9,3.9-4.5c0.1-0.1,0.1-0.1,0.2-0.2c-0.4-0.7-0.6-1.4-0.6-2.2c-2.4,2-4.2,4-5.3,5.9
		C3.3,37.7,3,39.4,3.6,41c0.7,1.5,2.1,2.5,3.9,3c0.1,0,0.1,0,0.2,0.1c0.6,0.2,1.3,0.3,1.9,0.4c1.4,0.2,2.9,0.2,4.5,0.1
		c5.2-0.4,11.7-2,18.5-4.9c8.1-3.4,14.8-7.7,18.5-11.8c-0.1-0.1-0.1-0.3-0.1-0.4c0-0.6,0.4-1,1-1.1c0.1,0,0.2,0,0.3,0
		c0.4-0.5,0.8-1.1,1.1-1.6C54.4,23,54.7,21.3,54.1,19.8"/>
	<path class="st1" d="M7.9,45.1c0.3,0.4,0.8,0.5,1.2,0.3c0.1,0,0.1-0.1,0.2-0.1c0.3-0.2,0.4-0.6,0.4-0.9C9,44.3,8.4,44.2,7.8,44
		C7.6,44.4,7.6,44.8,7.9,45.1"/>
	<path class="st1" d="M16.1,38.4c-0.5,0.3-0.7,0.9-0.4,1.4c0.3,0.5,0.8,0.6,1.3,0.4c0,0,0.1,0,0.1-0.1c0.5-0.3,0.7-0.9,0.4-1.4
		C17.2,38.3,16.5,38.1,16.1,38.4"/>
	<path class="st1" d="M20.3,36.1c-0.5,0.3-0.7,0.9-0.4,1.4c0.3,0.5,0.8,0.7,1.3,0.5c0,0,0,0,0.1,0c0.5-0.3,0.7-0.9,0.4-1.4
		C21.4,36,20.8,35.8,20.3,36.1"/>
	<path class="st1" d="M24.5,34c-0.5,0.2-0.7,0.9-0.5,1.4c0.2,0.5,0.8,0.7,1.4,0.5c0,0,0,0,0,0c0.5-0.2,0.7-0.9,0.5-1.4
		C25.7,34,25.1,33.8,24.5,34"/>
	<path class="st1" d="M4.1,48.5c-0.4-0.4-1.1-0.3-1.5,0.1c-0.4,0.4-0.3,1.1,0.1,1.5c0.3,0.3,0.7,0.3,1.1,0.2
		c0.1-0.1,0.3-0.1,0.4-0.3C4.6,49.5,4.6,48.9,4.1,48.5"/>
	<path class="st1" d="M22.4,35c-0.5,0.3-0.7,0.9-0.5,1.4c0.2,0.5,0.8,0.7,1.3,0.5c0,0,0,0,0,0l0,0c0.5-0.2,0.7-0.9,0.5-1.4
		C23.5,35,22.9,34.8,22.4,35"/>
	<path class="st1" d="M4.4,46.8c-0.4,0.4-0.4,1.1,0,1.5c0.3,0.3,0.8,0.4,1.2,0.2c0.1,0,0.2-0.1,0.3-0.2c0.4-0.4,0.4-1.1,0-1.5
		C5.4,46.4,4.8,46.4,4.4,46.8"/>
	<path class="st1" d="M5.1,56.9L5.1,56.9c-0.6-0.1-1.1,0.3-1.2,0.8c-0.1,0.6,0.3,1.1,0.8,1.2v0c0.2,0,0.4,0,0.6-0.1
		c0.3-0.1,0.5-0.4,0.6-0.8C6.1,57.5,5.7,57,5.1,56.9"/>
	<path class="st1" d="M26.7,33c-0.5,0.2-0.8,0.8-0.5,1.4c0.2,0.5,0.8,0.8,1.4,0.5c0,0,0,0,0,0c0.5-0.2,0.8-0.8,0.5-1.4
		C27.9,33,27.3,32.8,26.7,33"/>
	<path class="st1" d="M2.4,52.1c0.2-0.1,0.3-0.2,0.5-0.4c0.3-0.5,0.2-1.1-0.3-1.4c-0.5-0.3-1.1-0.2-1.4,0.3l0,0
		C0.8,51.1,1,51.7,1.5,52C1.8,52.2,2.1,52.2,2.4,52.1"/>
	<path class="st1" d="M7.3,46.9c0.1,0,0.2-0.1,0.3-0.2c0.4-0.4,0.5-1,0.1-1.5c-0.4-0.4-1-0.5-1.5-0.1c-0.4,0.4-0.5,1-0.1,1.5
		C6.4,47,6.8,47.1,7.3,46.9"/>
	<path class="st1" d="M0.8,54.3c0.2,0.1,0.5,0,0.7-0.1c0.3-0.1,0.5-0.4,0.6-0.7v0c0.1-0.6-0.2-1.1-0.7-1.3C0.8,52.1,0.2,52.5,0,53
		C-0.1,53.6,0.2,54.1,0.8,54.3"/>
	<path class="st1" d="M3.2,56.3c-0.5-0.3-1.1-0.1-1.4,0.4c-0.3,0.5-0.1,1.1,0.4,1.4c0.3,0.2,0.6,0.2,0.9,0c0.2-0.1,0.4-0.2,0.5-0.5
		C3.9,57.2,3.7,56.5,3.2,56.3"/>
	<path class="st1" d="M2.1,55.2c-0.2-0.5-0.8-0.8-1.4-0.5c-0.5,0.2-0.8,0.8-0.5,1.4c0.2,0.5,0.8,0.8,1.4,0.5
		C2.1,56.3,2.3,55.7,2.1,55.2"/>
	<path class="st1" d="M56.5,28.8c0.2,0.1,0.5,0.1,0.7,0c0.3-0.1,0.5-0.3,0.6-0.6c0.2-0.5-0.1-1.1-0.7-1.3c-0.5-0.2-1.1,0.1-1.3,0.7
		C55.7,28,56,28.6,56.5,28.8"/>
	<path class="st1" d="M48.8,27.3c0.3-0.3,0.6-0.6,0.9-0.9C49.2,26.5,48.8,26.9,48.8,27.3"/>
	<path class="st1" d="M48.8,27.5c0.1,0.6,0.6,1,1.1,0.9c0.1,0,0.2,0,0.3-0.1c0.4-0.2,0.7-0.6,0.6-1c-0.1-0.6-0.6-1-1.1-0.9
		c0,0,0,0,0,0c-0.3,0.3-0.6,0.6-0.9,0.9C48.8,27.4,48.7,27.5,48.8,27.5"/>
	<path class="st1" d="M45.3,29.2c0.1,0,0.1,0,0.2-0.1c0.4-0.2,0.7-0.7,0.6-1.1c-0.1-0.6-0.7-0.9-1.2-0.8c-0.6,0.1-0.9,0.7-0.8,1.2
		C44.2,28.9,44.8,29.3,45.3,29.2"/>
	<path class="st1" d="M47.3,26.7c-0.6,0.1-1,0.6-0.9,1.2c0.1,0.4,0.4,0.8,0.8,0.8c0.2-0.2,0.4-0.3,0.6-0.5c0.2-0.2,0.5-0.4,0.7-0.6
		c0,0,0,0,0,0C48.4,27,47.8,26.6,47.3,26.7"/>
	<path class="st1" d="M47.2,28.7c0.1,0,0.3,0,0.4,0c0.1,0,0.2,0,0.3-0.1c0.4-0.2,0.7-0.6,0.6-1.1c-0.2,0.2-0.4,0.4-0.7,0.6
		C47.6,28.4,47.4,28.6,47.2,28.7"/>
	<path class="st1" d="M52.2,28.3c0.1,0,0.3,0,0.4-0.1c0.4-0.2,0.6-0.5,0.6-1c0-0.5-0.3-0.8-0.8-1c-0.4,0.5-0.8,1-1.2,1.4
		C51.4,28.1,51.8,28.3,52.2,28.3"/>
	<path class="st1" d="M51.1,27.3c0,0.2,0,0.3,0.1,0.4c0.4-0.5,0.8-1,1.2-1.5c-0.1,0-0.2,0-0.3,0C51.6,26.3,51.1,26.7,51.1,27.3"/>
	<path class="st1" d="M58.2,29.6c0.3,0.3,0.8,0.4,1.1,0.2c0.1-0.1,0.2-0.1,0.3-0.2c0.4-0.4,0.4-1.1,0-1.5c-0.4-0.4-1.1-0.4-1.5,0
		C57.7,28.6,57.8,29.3,58.2,29.6"/>
	<path class="st1" d="M7.3,57.1c-0.6,0-1,0.4-1.1,1c0,0.6,0.4,1,1,1.1c0.2,0,0.3,0,0.4-0.1c0.4-0.2,0.6-0.5,0.6-0.9
		C8.4,57.6,7.9,57.1,7.3,57.1"/>
	<path class="st1" d="M54.6,26.3c-0.6-0.1-1.1,0.4-1.1,0.9c-0.1,0.6,0.4,1.1,0.9,1.1v0c0.2,0,0.4,0,0.5-0.1c0.3-0.1,0.6-0.5,0.6-0.8
		C55.6,26.9,55.2,26.4,54.6,26.3L54.6,26.3z"/>
	<path class="st1" d="M43,29.7c0.1,0,0.1,0,0.2-0.1c0.4-0.2,0.7-0.7,0.6-1.2c-0.1-0.6-0.7-0.9-1.2-0.8c-0.6,0.1-0.9,0.7-0.8,1.2
		C41.9,29.4,42.5,29.8,43,29.7"/>
	<path class="st1" d="M34.1,32.3C34.1,32.3,34.1,32.3,34.1,32.3c0.6-0.2,0.8-0.8,0.6-1.3c-0.2-0.5-0.8-0.8-1.3-0.6
		c-0.5,0.2-0.8,0.8-0.6,1.3C33,32.2,33.5,32.5,34.1,32.3"/>
	<path class="st1" d="M36.3,31.6C36.3,31.6,36.4,31.6,36.3,31.6c0.6-0.2,0.8-0.8,0.7-1.3c-0.2-0.5-0.8-0.8-1.3-0.7h0
		c-0.5,0.2-0.8,0.8-0.7,1.3C35.2,31.5,35.8,31.8,36.3,31.6"/>
	<path class="st1" d="M30.6,32.6c0.2,0.5,0.8,0.8,1.3,0.6c0,0,0,0,0,0c0.5-0.2,0.7-0.8,0.5-1.3c-0.2-0.5-0.8-0.8-1.3-0.6
		C30.6,31.4,30.3,32,30.6,32.6"/>
	<path class="st1" d="M28.9,32.1c-0.5,0.2-0.8,0.8-0.6,1.3c0.2,0.5,0.8,0.8,1.4,0.6c0,0,0,0,0,0c0.5-0.2,0.8-0.8,0.5-1.3
		C30.1,32.1,29.5,31.9,28.9,32.1"/>
	<path class="st1" d="M38.5,30.9c0,0,0.1,0,0.1,0c0.5-0.2,0.7-0.7,0.6-1.2c-0.2-0.5-0.7-0.9-1.3-0.7c-0.5,0.2-0.9,0.7-0.7,1.3
		C37.4,30.7,38,31,38.5,30.9"/>
	<path class="st1" d="M40.8,30.2L40.8,30.2c0.1,0,0.1,0,0.1-0.1c0.5-0.2,0.7-0.7,0.6-1.2c-0.1-0.6-0.7-0.9-1.3-0.7
		c-0.6,0.1-0.9,0.7-0.7,1.3C39.7,30.1,40.2,30.4,40.8,30.2"/>
	<path class="st1" d="M13.4,41.2c-0.3-0.5-1-0.6-1.4-0.3c-0.5,0.3-0.6,1-0.3,1.4c0,0,0.1,0.1,0.1,0.1c0.5,0,1,0,1.5,0
		C13.6,42.1,13.7,41.6,13.4,41.2"/>
	<path class="st1" d="M37.2,50.9C37.2,50.9,37.2,50.9,37.2,50.9c0.5-0.3,0.8-0.9,0.5-1.4c-0.2-0.5-0.9-0.7-1.4-0.5l0,0
		c-0.5,0.2-0.7,0.9-0.5,1.4C36,50.9,36.6,51.2,37.2,50.9"/>
	<path class="st1" d="M47.5,45.3c0,0,0.1,0,0.1-0.1c0.5-0.3,0.6-0.9,0.3-1.4c-0.3-0.5-0.9-0.6-1.4-0.3c-0.5,0.3-0.6,0.9-0.3,1.4
		C46.5,45.3,47.1,45.5,47.5,45.3"/>
	<path class="st1" d="M49.5,44c0.1,0,0.1-0.1,0.2-0.1c0.5-0.3,0.6-1,0.3-1.4c-0.3-0.5-1-0.6-1.4-0.3c-0.5,0.3-0.6,1-0.3,1.4
		C48.5,44,49.1,44.2,49.5,44"/>
	<path class="st1" d="M39.3,49.9C39.3,49.9,39.3,49.9,39.3,49.9c0.6-0.3,0.8-0.9,0.5-1.4c-0.3-0.5-0.9-0.7-1.4-0.5
		c-0.5,0.3-0.7,0.9-0.5,1.4C38.2,49.9,38.8,50.1,39.3,49.9"/>
	<path class="st1" d="M51.4,42.6c0.1,0,0.1-0.1,0.2-0.1c0.5-0.3,0.6-1,0.2-1.4c-0.3-0.5-1-0.6-1.4-0.2c-0.5,0.3-0.6,1-0.2,1.4
		C50.5,42.7,51,42.8,51.4,42.6"/>
	<path class="st1" d="M41.4,48.8C41.4,48.8,41.4,48.8,41.4,48.8c0.6-0.3,0.8-0.9,0.5-1.4c-0.3-0.5-0.9-0.7-1.4-0.4
		c-0.5,0.3-0.7,0.9-0.4,1.4C40.3,48.8,40.9,49,41.4,48.8"/>
	<path class="st1" d="M43.5,47.7C43.5,47.7,43.5,47.7,43.5,47.7c0.6-0.3,0.8-1,0.5-1.5c-0.3-0.5-0.9-0.7-1.4-0.4
		c-0.5,0.3-0.7,0.9-0.4,1.4C42.4,47.7,43,47.9,43.5,47.7"/>
	<path class="st1" d="M45.5,46.5c0,0,0.1,0,0.1-0.1c0.5-0.3,0.7-0.9,0.4-1.4c-0.3-0.5-0.9-0.7-1.4-0.4v0c-0.5,0.3-0.7,0.9-0.4,1.4
		C44.5,46.5,45,46.7,45.5,46.5"/>
	<path class="st1" d="M59.6,32.3c-0.5-0.2-1.1,0-1.4,0.5c-0.2,0.5,0,1.1,0.5,1.4c0.3,0.1,0.6,0.1,0.9,0c0.2-0.1,0.4-0.3,0.5-0.5
		C60.4,33.2,60.2,32.6,59.6,32.3"/>
	<path class="st1" d="M59.8,30c-0.6,0-1,0.5-1,1c0,0.6,0.5,1,1,1c0.1,0,0.3,0,0.4-0.1c0.4-0.2,0.6-0.5,0.6-1
		C60.8,30.4,60.4,30,59.8,30"/>
	<path class="st1" d="M57.1,34.6c-0.3,0.5-0.3,1.1,0.2,1.4c0.3,0.2,0.7,0.3,1,0.1c0.2-0.1,0.3-0.2,0.4-0.3c0.3-0.5,0.3-1.1-0.2-1.4
		C58.1,34.1,57.5,34.2,57.1,34.6"/>
	<path class="st1" d="M53.3,41.2c0.1,0,0.2-0.1,0.2-0.1c0.4-0.4,0.5-1,0.2-1.5c-0.4-0.4-1-0.5-1.5-0.2c-0.4,0.4-0.5,1-0.2,1.5
		C52.4,41.2,52.9,41.4,53.3,41.2"/>
	<path class="st1" d="M53.9,39.4c0.3,0.3,0.8,0.4,1.2,0.3c0.1,0,0.2-0.1,0.3-0.2h0c0.3-0.2,0.4-0.5,0.3-0.9
		c-0.3-0.1-0.7-0.2-1.1-0.3c-0.3,0-0.5-0.1-0.8-0.1C53.6,38.6,53.6,39,53.9,39.4"/>
	<path class="st1" d="M57.1,36.3c-0.4-0.4-1.1-0.4-1.5,0c0,0,0,0-0.1,0.1c0.7,0.2,1.3,0.4,1.8,0.7C57.4,36.8,57.3,36.5,57.1,36.3"/>
	<path class="st1" d="M28.4,54.6L28.4,54.6C28.4,54.6,28.4,54.6,28.4,54.6c0.6-0.2,0.8-0.8,0.6-1.3c-0.2-0.5-0.8-0.8-1.3-0.6l0,0
		c-0.5,0.2-0.8,0.8-0.6,1.3C27.2,54.6,27.8,54.8,28.4,54.6"/>
	<path class="st1" d="M18.1,37.2c-0.5,0.3-0.7,0.9-0.4,1.4c0.3,0.5,0.8,0.7,1.3,0.5c0,0,0.1,0,0.1,0c0.5-0.3,0.7-0.9,0.4-1.4
		C19.3,37.1,18.6,36.9,18.1,37.2"/>
	<path class="st1" d="M16.9,58.1c0.1,0,0.1,0,0.2-0.1c0.4-0.2,0.7-0.7,0.6-1.2c-0.1-0.6-0.7-0.9-1.2-0.8c-0.1,0-0.1,0-0.2,0
		c-0.2,0.2-0.4,0.5-0.6,0.7c0,0.2,0,0.3,0,0.5C15.8,57.8,16.4,58.2,16.9,58.1"/>
	<path class="st1" d="M15.7,56.8c0.2-0.2,0.4-0.5,0.6-0.7C16,56.2,15.8,56.5,15.7,56.8"/>
	<path class="st1" d="M18.7,55.5c-0.6,0.1-0.9,0.7-0.7,1.3c0.1,0.6,0.7,0.9,1.3,0.8c0.1,0,0.1,0,0.2-0.1c0.5-0.2,0.7-0.7,0.6-1.2
		C19.9,55.7,19.3,55.4,18.7,55.5"/>
	<path class="st1" d="M14.5,58.5c0.1,0,0.2,0,0.2-0.1c0.4-0.2,0.7-0.6,0.6-1.1c0,0,0-0.1,0-0.1c-0.4,0.5-0.7,0.9-1,1.3
		C14.4,58.5,14.5,58.5,14.5,58.5L14.5,58.5z"/>
	<path class="st1" d="M14.2,56.5c-0.6,0.1-0.9,0.6-0.8,1.2c0.1,0.5,0.5,0.8,1,0.9c0.3-0.4,0.6-0.9,1-1.3
		C15.2,56.7,14.7,56.4,14.2,56.5"/>
	<path class="st1" d="M10.1,59c0.4-0.2,0.6-0.6,0.6-1c0-0.6-0.5-1-1.1-1v0c-0.6,0-1,0.5-1,1.1c0,0.6,0.5,1,1.1,1
		C9.9,59.1,10,59.1,10.1,59"/>
	<path class="st1" d="M12.8,57.2c-0.2-0.2-0.5-0.4-0.9-0.3c-0.6,0.1-1,0.6-0.9,1.2c0.1,0.4,0.3,0.7,0.7,0.9
		C12,58.3,12.4,57.7,12.8,57.2"/>
	<path class="st1" d="M12.2,58.9c0.1,0,0.2,0,0.3-0.1c0.4-0.2,0.7-0.6,0.6-1.1c0-0.2-0.1-0.4-0.3-0.6c-0.4,0.6-0.8,1.1-1.1,1.7
		C11.9,58.9,12,58.9,12.2,58.9L12.2,58.9z"/>
	<path class="st1" d="M14,39.6c-0.5,0.3-0.6,0.9-0.3,1.4c0.3,0.4,0.8,0.6,1.3,0.4c0,0,0.1,0,0.1-0.1c0.5-0.3,0.6-0.9,0.3-1.4
		C15.1,39.5,14.5,39.3,14,39.6"/>
	<path class="st1" d="M26.1,55.4C26.2,55.4,26.2,55.4,26.1,55.4c0.6-0.2,0.8-0.8,0.6-1.3c-0.2-0.5-0.8-0.8-1.3-0.6
		c-0.5,0.2-0.8,0.8-0.6,1.3C25,55.3,25.6,55.6,26.1,55.4"/>
	<path class="st1" d="M10,42.2c0,0-0.1,0.1-0.1,0.1c0.5,0.1,1,0.1,1.5,0.1C11.1,42,10.4,41.9,10,42.2"/>
	<path class="st1" d="M30.6,53.8C30.6,53.8,30.6,53.8,30.6,53.8c0.5-0.2,0.8-0.8,0.6-1.3c-0.2-0.5-0.8-0.8-1.3-0.6
		c-0.5,0.2-0.8,0.8-0.6,1.3C29.5,53.7,30.1,54,30.6,53.8"/>
	<path class="st1" d="M32.8,52.9L32.8,52.9C32.8,52.9,32.8,52.9,32.8,52.9c0.5-0.2,0.8-0.8,0.6-1.4C33.1,51,32.5,50.7,32,51
		c-0.5,0.2-0.8,0.8-0.6,1.4C31.7,52.9,32.3,53.1,32.8,52.9"/>
	<path class="st1" d="M21,54.9L21,54.9c-0.5,0.2-0.9,0.7-0.7,1.3c0.2,0.5,0.7,0.9,1.3,0.7c0,0,0.1,0,0.1,0c0.5-0.2,0.7-0.7,0.6-1.2
		C22.1,55.1,21.5,54.7,21,54.9"/>
	<path class="st1" d="M35,51.9C35,51.9,35,51.9,35,51.9c0.5-0.2,0.8-0.8,0.5-1.4c-0.2-0.5-0.8-0.8-1.4-0.5c-0.5,0.2-0.8,0.8-0.5,1.4
		C33.9,51.9,34.5,52.2,35,51.9"/>
	<path class="st1" d="M24,56.1c0.5-0.2,0.7-0.7,0.6-1.3c-0.2-0.5-0.8-0.8-1.3-0.7v0c-0.5,0.2-0.8,0.8-0.7,1.3
		c0.2,0.5,0.8,0.8,1.3,0.7C23.9,56.2,23.9,56.2,24,56.1"/>
</g>
<g id="health_systems_global">
	<g>
		<path class="st1" d="M81.5,68c0-0.9-0.4-1.8-1.2-1.8c-0.8,0-1.2,0.9-1.2,1.8c0,1,0.4,1.8,1.2,1.8C81.2,69.9,81.5,69,81.5,68
			 M78.4,68c0-1.3,0.7-2.5,1.9-2.5c1.3,0,1.9,1.1,1.9,2.5c0,1.3-0.7,2.5-1.9,2.5C79.1,70.5,78.4,69.4,78.4,68"/>
		<path class="st1" d="M85.1,69.9c0.8,0,1.1-0.8,1.1-1.8c0-1-0.4-1.8-1.1-1.8c-0.4,0-0.9,0.4-1.1,0.8v2.1
			C84.2,69.5,84.6,69.9,85.1,69.9 M83.3,70.4v-6.5H84v2.5c0.3-0.5,0.8-0.8,1.2-0.8c1.1,0,1.7,1,1.7,2.5c0,1.5-0.6,2.5-1.7,2.5
			c-0.5,0-1-0.3-1.2-0.8v0.7H83.3z"/>
		<path class="st1" d="M90.4,69.4v-0.9c-0.2-0.4-0.6-0.6-1-0.6c-0.6,0-0.9,0.5-0.9,1s0.3,1,0.9,1C89.8,70,90.2,69.8,90.4,69.4
			 M90.4,70.4v-0.5c-0.3,0.4-0.8,0.6-1.2,0.6c-0.8,0-1.4-0.6-1.4-1.6c0-1,0.7-1.5,1.4-1.5c0.5,0,0.9,0.2,1.2,0.6v-0.8
			c0-0.6-0.3-1-1-1c-0.4,0-0.8,0.2-1.2,0.6l-0.3-0.5c0.4-0.5,1-0.7,1.6-0.7c0.9,0,1.6,0.5,1.6,1.5v3.3H90.4z"/>
	</g>
	<rect x="92.4" y="63.9" class="st1" width="0.7" height="6.5"/>
	<rect x="76.7" y="63.9" class="st1" width="0.7" height="6.5"/>
	<g>
		<path class="st1" d="M87.9,60.2v-3.1h-0.6v-0.6h0.6v-1.3h0.7v1.3h0.8v0.6h-0.8v3c0,0.3,0.1,0.6,0.4,0.6c0.2,0,0.3-0.1,0.4-0.2
			l0.2,0.5c-0.2,0.2-0.4,0.3-0.8,0.3C88.2,61.3,87.9,60.9,87.9,60.2"/>
		<path class="st1" d="M92.8,61.2v-3.4c0-0.6-0.3-0.8-0.7-0.8c-0.5,0-0.9,0.4-1.1,0.7v3.4h-0.7v-6.5H91v2.5c0.3-0.4,0.8-0.8,1.4-0.8
			c0.8,0,1.2,0.4,1.2,1.3v3.5H92.8z"/>
		<path class="st1" d="M96.5,60.5l0.4-0.6c0.3,0.4,0.9,0.7,1.5,0.7c0.8,0,1.2-0.5,1.2-1.1c0-1.6-2.9-1.2-2.9-3.2
			c0-1,0.8-1.7,1.9-1.7c0.7,0,1.3,0.2,1.7,0.7l-0.4,0.6c-0.4-0.4-0.8-0.6-1.4-0.6c-0.6,0-1.1,0.4-1.1,1c0,1.4,2.9,1.1,2.9,3.2
			c0,1-0.6,1.8-2,1.8C97.6,61.3,97,61,96.5,60.5"/>
		<path class="st1" d="M101.3,62.4c0.1,0,0.2,0.1,0.3,0.1c0.3,0,0.4-0.1,0.6-0.5l0.2-0.7l-1.6-4.8h0.8l1.2,3.8l1.2-3.8h0.7l-1.9,5.7
			c-0.2,0.7-0.6,0.9-1.2,0.9c-0.1,0-0.4,0-0.5-0.1L101.3,62.4z"/>
		<path class="st1" d="M105.1,60.6l0.4-0.5c0.3,0.3,0.7,0.6,1.2,0.6c0.6,0,0.9-0.3,0.9-0.8c0-1.1-2.3-0.7-2.3-2.3
			c0-0.7,0.6-1.3,1.5-1.3c0.6,0,1.1,0.2,1.4,0.6l-0.3,0.5c-0.2-0.3-0.6-0.5-1.1-0.5c-0.5,0-0.8,0.3-0.8,0.7c0,1,2.4,0.7,2.4,2.3
			c0,0.8-0.6,1.3-1.6,1.3C106,61.3,105.5,61.1,105.1,60.6"/>
		<path class="st1" d="M109.4,60.2v-3.1h-0.6v-0.6h0.6v-1.3h0.7v1.3h0.8v0.6h-0.8v3c0,0.3,0.1,0.6,0.4,0.6c0.2,0,0.3-0.1,0.4-0.2
			l0.2,0.5c-0.2,0.2-0.4,0.3-0.8,0.3C109.7,61.3,109.4,60.9,109.4,60.2"/>
		<path class="st1" d="M113.4,57c-0.8,0-1.2,0.9-1.2,1.6h2.4C114.6,57.8,114.3,57,113.4,57 M111.5,58.8c0-1.4,0.7-2.5,1.9-2.5
			c1.2,0,1.9,1.1,1.9,2.5v0.2h-3.1c0,0.9,0.5,1.7,1.4,1.7c0.4,0,0.8-0.2,1.1-0.6l0.4,0.4c-0.4,0.5-0.9,0.7-1.5,0.7
			C112.3,61.3,111.5,60.3,111.5,58.8"/>
		<path class="st1" d="M121.1,61.2v-3.4c0-0.5-0.2-0.8-0.7-0.8c-0.4,0-0.8,0.4-1,0.7v3.4h-0.7v-3.4c0-0.5-0.2-0.8-0.7-0.8
			c-0.4,0-0.8,0.4-1,0.7v3.4h-0.7v-4.7h0.7v0.7c0.2-0.4,0.7-0.8,1.3-0.8c0.6,0,1,0.3,1.1,0.8c0.2-0.4,0.8-0.8,1.3-0.8
			c0.7,0,1.1,0.4,1.1,1.2v3.6H121.1z"/>
		<path class="st1" d="M122.7,60.6l0.3-0.5c0.3,0.3,0.7,0.6,1.2,0.6c0.6,0,0.9-0.3,0.9-0.8c0-1.1-2.3-0.7-2.3-2.3
			c0-0.7,0.6-1.3,1.5-1.3c0.6,0,1.1,0.2,1.4,0.6l-0.3,0.5c-0.2-0.3-0.6-0.5-1.1-0.5c-0.5,0-0.8,0.3-0.8,0.7c0,1,2.4,0.7,2.4,2.3
			c0,0.8-0.6,1.3-1.6,1.3C123.6,61.3,123.1,61.1,122.7,60.6"/>
		<path class="st1" d="M71,67.1c0-2,1-3.4,2.5-3.4c1,0,1.5,0.5,1.9,1.2l-0.6,0.3c-0.3-0.5-0.7-0.9-1.3-0.9c-1,0-1.7,1.1-1.7,2.7
			c0,1.6,0.7,2.7,1.7,2.7c0.6,0,1-0.3,1.2-0.6v-1.5h-1.6v-0.7h2.3v2.5c-0.5,0.6-1.1,0.9-2,0.9C72,70.5,71,69.2,71,67.1"/>
	</g>
	<rect x="85.7" y="54.7" class="st1" width="0.7" height="6.5"/>
	<g>
		<path class="st1" d="M78.5,57c-0.8,0-1.2,0.9-1.2,1.6h2.4C79.6,57.8,79.3,57,78.5,57 M76.6,58.8c0-1.4,0.7-2.5,1.9-2.5
			c1.2,0,1.9,1.1,1.9,2.5v0.2h-3.1c0,0.9,0.5,1.7,1.4,1.7c0.4,0,0.8-0.2,1.1-0.6l0.4,0.4c-0.4,0.5-0.9,0.7-1.5,0.7
			C77.3,61.3,76.6,60.3,76.6,58.8"/>
		<path class="st1" d="M83.8,60.2v-0.9c-0.2-0.4-0.6-0.6-1-0.6c-0.6,0-0.9,0.5-0.9,1.1c0,0.6,0.3,1,0.9,1
			C83.2,60.8,83.5,60.6,83.8,60.2 M83.8,61.2v-0.5c-0.3,0.4-0.8,0.6-1.2,0.6c-0.8,0-1.4-0.6-1.4-1.6c0-1,0.7-1.5,1.4-1.5
			c0.5,0,0.9,0.2,1.2,0.6V58c0-0.6-0.4-1-1-1c-0.4,0-0.8,0.2-1.2,0.6l-0.3-0.5c0.4-0.5,1-0.7,1.6-0.7c0.9,0,1.6,0.5,1.6,1.5v3.3
			H83.8z"/>
	</g>
	<polygon class="st1" points="74.7,61.2 74.7,58.2 72,58.2 72,61.2 71.2,61.2 71.2,54.7 72,54.7 72,57.5 74.7,57.5 74.7,54.7 
		75.5,54.7 75.5,61.2 	"/>
</g>
</svg>
