<svg id="hsr_bird" data-name="hsr bird" xmlns="http://www.w3.org/2000/svg" viewBox="0 0 104.09 123.89"><defs><style>.cls-1,.cls-2{fill:#fff;}.cls-2{stroke:#fff;stroke-width:1.6px;}</style></defs><title>hsr-bird</title><g id="hsr_bird-2" data-name="hsr bird"><polygon class="cls-1" points="65.42 65.77 64.85 102.05 101.14 119.97 65.42 65.77"/><polygon class="cls-1" points="27.05 61.47 64 65.75 63.47 101.64 27.05 61.47"/><polygon class="cls-1" points="39.75 27.68 27.61 60.08 45.76 62.28 39.75 27.68"/><polygon class="cls-1" points="38.24 27.63 33.08 41.35 13.29 39.64 7.14 45.75 6.64 45.29 11.41 39.48 6.01 39.02 14.17 36.13 23.29 25.06 25.05 27.98 18.3 34.67 38.24 27.63"/><polygon class="cls-1" points="86.09 45.32 64.19 64.37 53.48 63.14 51.47 45.93 86.09 45.32"/><polygon class="cls-1" points="26.12 62.45 61.52 101.53 51.3 102.32 26.12 62.45"/><polygon class="cls-1" points="54.77 103.32 59.76 103 61.67 108.67 60.63 117.67 57.37 117.27 57.97 108.86 54.77 103.32"/><polygon class="cls-1" points="61.31 103 66.42 105.2 66.67 109.53 64.61 119.16 61.99 118.1 63.14 108.72 61.31 103"/><polygon class="cls-2" points="1.32 40.51 2.35 44.38 5.87 43.58 1.32 40.51"/><polygon class="cls-2" points="12.16 51.13 14.23 48.29 9.55 46.3 12.16 51.13"/><polygon class="cls-2" points="2.89 50.1 5.98 51.78 7.32 46.86 2.89 50.1"/><polygon class="cls-1" points="41.16 27.63 42.18 32.94 49.73 32.5 41.16 27.63"/><polygon class="cls-1" points="65.75 25.85 86.09 43.94 51.47 44.49 65.75 25.85"/><polyline class="cls-1" points="79.33 0.71 66.68 24.8 86.09 42.01"/></g></svg>